<svg width="123" height="25" viewBox="0 0 123 25" fill="none" xmlns="http://www.w3.org/2000/svg">
<path fill-rule="evenodd" clip-rule="evenodd" d="M15.1402 8.05194C15.1402 8.94951 15.144 9.31235 15.1487 8.85831C15.1535 8.40408 15.1535 7.66971 15.1487 7.22636C15.144 6.78284 15.1402 7.15438 15.1402 8.05194ZM25.947 8.45993C25.947 8.48477 25.9586 8.53246 25.973 8.56564C25.9893 8.60372 25.999 8.60935 25.999 8.58088C25.999 8.55585 25.9873 8.50834 25.973 8.47498C25.9566 8.4369 25.947 8.43128 25.947 8.45993ZM26.0059 8.73192C26.0068 8.75676 26.0193 8.80445 26.0335 8.83763L26.0597 8.8982L26.0613 8.83763C26.0622 8.80445 26.0497 8.75676 26.0335 8.73192C26.0075 8.69167 26.0044 8.69167 26.0059 8.73192ZM22.8825 9.16439C22.8825 9.16964 22.9269 9.21389 22.981 9.26267L23.0794 9.35152L22.9905 9.25324C22.9076 9.16167 22.8825 9.14118 22.8825 9.16439ZM15.1375 10.1976C15.1375 10.3805 15.1425 10.4514 15.1485 10.3552C15.1545 10.2591 15.1545 10.1095 15.1484 10.0228C15.1422 9.93612 15.1373 10.0148 15.1375 10.1976ZM23.9336 10.1044C23.9805 10.1446 24.024 10.172 24.0305 10.1657C24.0453 10.151 23.9067 10.0338 23.8731 10.0324C23.8596 10.0319 23.8869 10.0643 23.9336 10.1044ZM24.0642 10.192C24.0642 10.1972 24.1085 10.2415 24.1627 10.2902L24.261 10.3789L24.1721 10.2808C24.0892 10.1892 24.0642 10.1686 24.0642 10.192ZM26.3696 10.3009C26.368 10.3245 26.4 10.4741 26.4404 10.6333C26.4809 10.7927 26.5223 10.9619 26.5327 11.0096C26.5431 11.0573 26.5585 11.0894 26.5671 11.0808C26.584 11.064 26.4969 10.6141 26.4674 10.5668C26.4576 10.5508 26.4322 10.4748 26.4109 10.398C26.3896 10.3211 26.3711 10.2774 26.3696 10.3009ZM24.4906 10.5936C24.531 10.6368 24.6186 10.7138 24.6853 10.7648C24.7595 10.8217 24.7361 10.7914 24.6246 10.6863C24.4346 10.5073 24.3647 10.4589 24.4906 10.5936ZM15.1389 11.1798C15.1389 11.5206 15.1433 11.66 15.1487 11.4895C15.154 11.3193 15.154 11.0404 15.1487 10.8701C15.1433 10.6997 15.1389 10.8391 15.1389 11.1798ZM24.9415 10.9758C25.0671 11.1093 25.0944 11.1332 25.0944 11.1106C25.0944 11.1057 25.0295 11.0411 24.9504 10.967L24.8064 10.8322L24.9415 10.9758ZM16.7698 11.0741C16.7701 11.1405 16.7763 11.1642 16.7836 11.1265C16.7909 11.089 16.7907 11.0346 16.783 11.0058C16.7754 10.9768 16.7696 11.0076 16.7698 11.0741ZM22.9583 11.1354C23.2606 11.4165 23.3428 11.4863 23.3555 11.4736C23.3632 11.4662 23.2496 11.3615 23.1032 11.2413C22.9569 11.1211 22.8916 11.0734 22.9583 11.1354ZM25.1271 11.1405C25.1307 11.1758 25.4609 11.4589 25.4781 11.4417C25.4861 11.4337 25.4289 11.3681 25.3507 11.2959C25.1967 11.1537 25.1233 11.1026 25.1271 11.1405ZM26.5654 11.1722C26.5716 11.2014 26.6005 11.334 26.6294 11.4669C26.6585 11.6 26.6836 11.7155 26.6852 11.7238C26.687 11.7322 26.6992 11.7842 26.7123 11.8395C26.7643 12.058 26.7879 12.33 26.7529 12.3084C26.7403 12.3006 26.7221 12.3146 26.7125 12.3396C26.689 12.4007 26.5407 12.3351 26.3798 12.1922C26.1273 11.9681 25.9232 11.7922 25.8803 11.7619C25.851 11.7412 25.7617 11.6636 25.6817 11.5893C25.6018 11.5149 25.5294 11.4611 25.521 11.4694C25.5058 11.4846 25.6003 11.5731 25.8514 11.7788C25.9262 11.8399 26.0081 11.9129 26.0331 11.9409C26.174 12.0974 26.6281 12.4491 26.6892 12.4491C26.8399 12.4491 26.8598 12.2256 26.7483 11.7842C26.7083 11.6264 26.6598 11.4192 26.6405 11.324C26.6211 11.2286 26.5938 11.1436 26.5798 11.1351C26.5658 11.1263 26.5592 11.1432 26.5654 11.1722ZM16.7698 11.4368C16.7701 11.5031 16.7763 11.5269 16.7836 11.4892C16.7909 11.4516 16.7907 11.3972 16.783 11.3684C16.7754 11.3394 16.7696 11.3702 16.7698 11.4368ZM23.5793 11.691C23.5793 11.7091 23.591 11.7238 23.6053 11.7238C23.6195 11.7238 23.6649 11.7545 23.7064 11.7918C23.7478 11.8292 23.8146 11.887 23.8547 11.9202L23.9278 11.9808L23.8673 11.9093C23.7773 11.8034 23.5793 11.6535 23.5793 11.691ZM15.1304 15.562C15.1246 17.6146 15.1224 19.399 15.1255 19.5272C15.1315 19.7704 15.1091 19.8625 15.0622 19.7885C15.0431 19.7586 15.036 19.7657 15.0357 19.8152C15.0353 19.8618 14.9951 19.9078 14.9064 19.963C14.6252 20.1381 14.4439 20.2612 14.4343 20.2834C14.4287 20.2962 14.411 20.3066 14.3948 20.3066C14.3788 20.3066 14.2879 20.3575 14.1929 20.4199C14.098 20.4821 14.0065 20.5399 13.9898 20.5485C13.9618 20.5626 13.8842 20.6123 13.4293 20.9075C13.3377 20.967 13.2581 21.0261 13.2526 21.039C13.247 21.0516 13.2266 21.0625 13.2072 21.0629C13.1877 21.0634 13.0218 21.1644 12.8385 21.2874C12.6553 21.4103 12.5009 21.4992 12.4957 21.4847C12.4904 21.4703 12.4695 21.4649 12.4491 21.4725C12.4026 21.4905 12.2717 21.3652 12.1961 21.2303C12.1783 21.1985 12.1383 21.169 12.1072 21.1646C12.0586 21.1577 12.057 21.1617 12.0963 21.1925C12.1212 21.2123 12.1781 21.2828 12.2226 21.3492C12.327 21.5053 12.4468 21.6393 12.4653 21.6207C12.4735 21.6127 12.48 21.6239 12.48 21.6455C12.48 21.6798 12.7296 22.0172 13.187 22.6011C13.2619 22.6968 13.4517 22.9438 13.6086 23.1502C13.8931 23.5244 13.9305 23.5725 14.1583 23.8577C14.2983 24.0328 14.2792 24.0084 14.487 24.2807C14.9124 24.8383 14.9404 24.87 15.0091 24.87C15.1631 24.87 15.1571 25.1524 15.1487 18.2449C15.1429 13.2979 15.1385 12.6839 15.1304 15.562ZM24.0036 12.0551C24.0036 12.0712 24.0342 12.1004 24.0718 12.12C24.1396 12.1556 24.1396 12.1554 24.0822 12.0908C24.018 12.0188 24.0036 12.0123 24.0036 12.0551ZM24.3759 12.3811C24.4628 12.46 24.5385 12.5351 24.5441 12.5478C24.5495 12.5603 24.5837 12.5849 24.6197 12.6022C24.6557 12.6196 24.5899 12.5449 24.4732 12.4364C24.3565 12.328 24.2514 12.2388 24.2396 12.2384C24.228 12.2379 24.2892 12.3023 24.3759 12.3811ZM24.8415 12.8011C24.9273 12.8818 25.0324 12.975 25.0749 13.0082C25.1173 13.0415 25.1527 13.0856 25.1535 13.1064C25.1544 13.1273 25.1753 13.1442 25.2004 13.1442C25.2253 13.1442 25.2458 13.1639 25.2458 13.188C25.2458 13.2122 25.2694 13.245 25.2982 13.2611C25.3445 13.287 25.3411 13.2947 25.2678 13.3278C25.2224 13.3485 25.1853 13.3753 25.1853 13.3873C25.1853 13.3993 25.1613 13.4172 25.1322 13.4268C25.0807 13.4443 24.9735 13.5066 24.9428 13.5371C24.9344 13.5454 24.8799 13.5784 24.8217 13.6103C24.7633 13.6424 24.7088 13.6763 24.7004 13.686C24.6735 13.7168 24.4914 13.8394 24.4725 13.8394C24.4623 13.8394 24.4094 13.8733 24.3547 13.9148C24.3001 13.9565 24.246 13.9904 24.2343 13.9904C24.2132 13.9904 24.0325 14.1106 24.0036 14.1438C23.9953 14.1534 23.9407 14.1873 23.8824 14.2194C23.824 14.2513 23.7695 14.2843 23.7611 14.2927C23.7387 14.315 23.6313 14.3808 23.5793 14.404C23.5544 14.4151 23.5271 14.4319 23.5188 14.4416C23.4917 14.4724 23.3097 14.5948 23.2908 14.5948C23.2806 14.5948 23.2277 14.6289 23.173 14.6704C23.1185 14.7119 23.0643 14.746 23.0527 14.746C23.0316 14.746 22.8509 14.8662 22.822 14.8994C22.8136 14.9088 22.7591 14.9429 22.7007 14.9748C22.6424 15.0069 22.5878 15.0397 22.5795 15.0481C22.5571 15.0706 22.4497 15.1362 22.3977 15.1594C22.3728 15.1707 22.3455 15.1875 22.3371 15.1971C22.3101 15.228 22.1281 15.3504 22.1092 15.3504C22.099 15.3504 22.0461 15.3845 21.9914 15.426C21.9368 15.4675 21.8774 15.5014 21.8596 15.5014C21.8418 15.5014 21.8225 15.5119 21.817 15.5248C21.8021 15.5589 21.4689 15.7734 21.4305 15.7734C21.4125 15.7734 21.3978 15.7855 21.3978 15.8002C21.3978 15.8149 21.374 15.8349 21.3449 15.8447C21.2911 15.8626 21.1833 15.9261 21.1555 15.956C21.1195 15.9948 20.7003 16.257 20.6743 16.257C20.6585 16.257 20.6408 16.2675 20.6354 16.2802C20.6238 16.307 20.2913 16.529 20.2629 16.529C20.2525 16.529 20.2274 16.5435 20.2074 16.5613C20.1382 16.6224 19.5192 17.0126 19.4916 17.0126C19.4763 17.0126 19.4592 17.0229 19.4537 17.0358C19.4421 17.0625 19.1096 17.2846 19.0812 17.2846C19.0709 17.2846 19.0458 17.2989 19.0258 17.3167C18.9471 17.3858 18.3408 17.768 18.3099 17.768C18.2919 17.768 18.2768 17.7783 18.2763 17.7907C18.2757 17.8032 18.1661 17.8813 18.0325 17.9646C17.8991 18.0476 17.6635 18.1972 17.5091 18.2969C17.3548 18.3967 17.151 18.5281 17.0563 18.5892C16.9357 18.6668 16.8772 18.6895 16.8614 18.6647C16.8488 18.6453 16.8287 17.793 16.8163 16.7707C16.8041 15.7486 16.7894 14.8374 16.7838 14.746C16.7779 14.6544 16.7743 16.8742 16.7754 19.6786L16.7774 24.7777L16.845 24.8452L16.9128 24.9128L16.9961 24.8508C17.0417 24.8167 17.1204 24.7335 17.1706 24.6659C17.2421 24.5699 17.6425 24.0633 17.7858 23.8878C17.8153 23.8517 18.0719 23.5184 18.3912 23.1021C18.5184 22.9358 18.6984 22.7039 18.7907 22.5866C18.8833 22.4693 18.9929 22.3273 19.0345 22.2711C19.0763 22.2149 19.1856 22.0727 19.2776 21.9554C19.3698 21.8381 19.4719 21.707 19.5048 21.6638C19.5379 21.6207 19.6466 21.4796 19.7466 21.3505C19.8466 21.2212 19.9573 21.0756 19.9928 21.0272C20.0282 20.9786 20.0967 20.8953 20.1453 20.8419C20.1938 20.7885 20.2738 20.6888 20.3232 20.6203C20.3727 20.5515 20.4905 20.3952 20.585 20.2727C20.6796 20.1501 20.8535 19.9205 20.9719 19.7626C21.0902 19.6048 21.2242 19.4302 21.2697 19.3749C21.3742 19.2478 21.4767 19.1162 21.761 18.7446C21.8859 18.5814 22.0699 18.3443 22.1701 18.2175C22.2702 18.0908 22.4068 17.9158 22.4735 17.8287C22.5402 17.7419 22.6107 17.6538 22.6302 17.6331C22.6498 17.6126 22.7044 17.5413 22.7514 17.475C22.8603 17.3214 23.0592 17.0608 23.2912 16.7669C23.3913 16.6401 23.5455 16.4429 23.6337 16.3286C23.7218 16.2144 23.9096 15.9714 24.0511 15.7886C24.1925 15.6057 24.3552 15.395 24.4127 15.3201C24.5883 15.0914 25.2489 14.2396 25.4645 13.9638C25.7465 13.6031 25.7455 13.5512 25.4534 13.2914C25.3343 13.1855 25.1991 13.0649 25.1529 13.0234C24.7857 12.6928 24.5394 12.5171 24.8415 12.8011ZM10.3085 18.8862C10.3442 18.9361 10.3802 18.9769 10.3885 18.9769C10.3969 18.9769 10.3745 18.9361 10.3389 18.8862C10.3033 18.8364 10.2673 18.7956 10.2591 18.7956C10.2507 18.7956 10.2731 18.8364 10.3085 18.8862ZM10.7156 19.4076C10.7623 19.4699 10.8063 19.5209 10.8132 19.5209C10.8399 19.5209 10.7654 19.4115 10.6997 19.3542C10.6432 19.3051 10.6461 19.3147 10.7156 19.4076ZM11.0012 19.7853C11.0391 19.8393 11.0766 19.8835 11.0844 19.8835C11.1106 19.8835 11.0395 19.7731 10.9855 19.73C10.9477 19.6995 10.9521 19.7156 11.0012 19.7853ZM11.2351 20.0805C11.2795 20.1383 11.3202 20.1858 11.3258 20.1858C11.3513 20.1858 11.2282 20.0036 11.1937 19.9903C11.1722 19.982 11.1909 20.0226 11.2351 20.0805ZM11.4162 20.3142C11.4649 20.3682 11.5153 20.4253 11.5278 20.4411C11.5423 20.4591 11.5509 20.4589 11.5509 20.4402C11.5509 20.4047 11.3818 20.2159 11.35 20.2159C11.3375 20.2159 11.3673 20.2602 11.4162 20.3142ZM11.6729 20.6391C11.7427 20.7305 11.8143 20.8107 11.8319 20.817C11.8688 20.8306 11.8492 20.8054 11.67 20.6088L11.546 20.4729L11.6729 20.6391ZM11.9712 21.0226C11.9901 21.0593 12.0201 21.0979 12.0377 21.1088C12.0981 21.1459 12.0844 21.1077 12.0105 21.0319C11.9436 20.9635 11.9399 20.9626 11.9712 21.0226Z" fill="#FC3146"/>
<path fill-rule="evenodd" clip-rule="evenodd" d="M26.146 9.4579C26.1549 9.49126 26.1764 9.52753 26.1938 9.53841C26.2138 9.55074 26.2182 9.53841 26.2053 9.50522C26.1942 9.47621 26.1851 9.43995 26.1851 9.42472C26.1851 9.40948 26.1728 9.39697 26.1577 9.39697C26.1426 9.39697 26.1373 9.42435 26.146 9.4579ZM26.2286 9.83741C26.2351 9.86933 26.2493 9.91792 26.2602 9.9453C26.2711 9.97287 26.2662 10.0039 26.2491 10.0144C26.232 10.0249 26.224 10.0501 26.2315 10.0702C26.2511 10.1237 26.0619 10.3036 25.9861 10.3036C25.9753 10.3036 25.9168 10.3424 25.8561 10.3901C25.7954 10.4376 25.6979 10.5007 25.6397 10.5303C25.5814 10.5598 25.5269 10.5934 25.5185 10.6046C25.5101 10.616 25.4556 10.6516 25.3972 10.6837C25.3389 10.7156 25.2845 10.7486 25.2762 10.7569C25.1609 10.8719 24.9428 10.9513 24.9428 10.8784C24.9428 10.8621 24.9097 10.8403 24.8693 10.8302C24.8288 10.8202 24.7884 10.7926 24.7793 10.7693C24.7702 10.7459 24.7457 10.7266 24.7246 10.7266C24.6864 10.7266 25.0555 11.0764 25.1549 11.1346C25.2031 11.1629 25.5425 11.4585 25.7321 11.6374C25.7785 11.6811 25.8428 11.7355 25.875 11.7582C25.9223 11.7916 26.12 11.9618 26.3798 12.1923C26.5407 12.3352 26.689 12.4008 26.7125 12.3397C26.7221 12.3147 26.7403 12.3007 26.7529 12.3085C26.7879 12.3301 26.7643 12.0581 26.7123 11.8396C26.6992 11.7843 26.687 11.7323 26.6852 11.7239C26.6836 11.7156 26.6596 11.6068 26.632 11.4822C26.6043 11.3575 26.5745 11.2148 26.5658 11.1649C26.5393 11.0142 26.4996 10.8456 26.4271 10.5756C26.3893 10.4342 26.36 10.2873 26.3624 10.249C26.3646 10.2108 26.3542 10.1868 26.3391 10.1961C26.3242 10.2053 26.3186 10.1872 26.3269 10.1558C26.3351 10.1245 26.3271 10.0896 26.3089 10.0786C26.2907 10.0673 26.276 10.0447 26.276 10.028C26.276 10.0113 26.2891 10.0059 26.3051 10.0157C26.3218 10.0262 26.3202 9.9919 26.3009 9.93442C26.2626 9.81983 26.2109 9.75056 26.2286 9.83741ZM24.5186 10.5631C24.5186 10.5807 24.5528 10.6271 24.5944 10.6663C24.6361 10.7052 24.6701 10.7274 24.6701 10.7154C24.6701 10.7036 24.6361 10.6572 24.5944 10.6122C24.5528 10.5674 24.5186 10.5453 24.5186 10.5631ZM23.4582 11.6331C23.4582 11.6697 23.5431 11.7096 23.568 11.6848C23.5771 11.6757 23.5561 11.6532 23.5213 11.6347C23.4775 11.6113 23.4582 11.6108 23.4582 11.6331ZM23.5902 11.7691C23.6017 11.7986 23.5635 11.8463 23.4799 11.9071C23.2874 12.0469 22.9798 12.2376 22.9469 12.2376C22.9309 12.2376 22.9132 12.248 22.9078 12.2603C22.9021 12.2728 22.8431 12.3183 22.7765 12.3617C22.6364 12.4525 22.2179 12.7223 21.9685 12.8828C21.8739 12.9435 21.783 12.9932 21.7665 12.9932C21.7498 12.9932 21.7316 13.0034 21.7261 13.0159C21.7205 13.0284 21.6614 13.0739 21.5949 13.1171C21.3031 13.3062 20.9448 13.5367 20.7768 13.6429C20.6768 13.7062 20.5199 13.8079 20.4283 13.8692C20.3367 13.9305 20.248 13.9862 20.2314 13.9931C20.2147 14 20.0989 14.0725 19.9738 14.1541C19.849 14.2357 19.6717 14.3499 19.5799 14.4079C19.4883 14.466 19.3383 14.5635 19.2467 14.6248C19.1551 14.6859 19.0663 14.7418 19.0498 14.7487C19.0331 14.7555 18.9205 14.8257 18.7998 14.9048C18.6789 14.9837 18.4813 15.1129 18.3604 15.1918C18.2396 15.2707 18.1272 15.3405 18.1105 15.3469C18.0938 15.3532 18.0598 15.3761 18.0347 15.3976C18.0096 15.4192 17.955 15.4551 17.9134 15.4774C17.8718 15.4995 17.7356 15.5842 17.6106 15.6653C17.4857 15.7463 17.3288 15.848 17.2621 15.8914C17.1955 15.9347 17.1364 15.9802 17.1308 15.9927C17.1253 16.0051 17.103 16.0154 17.0815 16.0154C17.0599 16.0154 17.0254 16.0357 17.0046 16.0607C16.8836 16.2062 16.8574 16.1173 16.8261 15.4562C16.8101 15.1168 16.8058 15.491 16.813 16.5594C16.8288 18.8835 16.8123 18.7464 17.0563 18.5893C17.151 18.5282 17.3548 18.3968 17.5091 18.297C17.6635 18.1973 17.8991 18.0477 18.0325 17.9647C18.1661 17.8814 18.2757 17.8033 18.2763 17.7908C18.2768 17.7785 18.2919 17.7681 18.3099 17.7681C18.3408 17.7681 18.9471 17.3859 19.0258 17.3168C19.0458 17.299 19.0709 17.2847 19.0812 17.2847C19.1096 17.2847 19.4421 17.0626 19.4537 17.0359C19.4592 17.023 19.4763 17.0127 19.4916 17.0127C19.5192 17.0127 20.1382 16.6225 20.2074 16.5614C20.2274 16.5436 20.2525 16.5291 20.2629 16.5291C20.2913 16.5291 20.6238 16.3072 20.6354 16.2803C20.6408 16.2676 20.6585 16.2571 20.6743 16.2571C20.7003 16.2571 21.1195 15.9949 21.1555 15.9561C21.1833 15.9262 21.2911 15.8627 21.3449 15.8448C21.374 15.835 21.3978 15.815 21.3978 15.8004C21.3978 15.7857 21.4125 15.7735 21.4305 15.7735C21.4689 15.7735 21.8021 15.559 21.817 15.5249C21.8225 15.512 21.8418 15.5015 21.8596 15.5015C21.8774 15.5015 21.9368 15.4676 21.9914 15.4261C22.0461 15.3846 22.099 15.3505 22.1092 15.3505C22.1281 15.3505 22.3101 15.2281 22.3371 15.1973C22.3455 15.1877 22.3728 15.1708 22.3977 15.1595C22.4497 15.1363 22.5571 15.0707 22.5795 15.0482C22.5878 15.0399 22.6424 15.0071 22.7007 14.975C22.7591 14.943 22.8136 14.909 22.822 14.8995C22.8509 14.8663 23.0316 14.7461 23.0527 14.7461C23.0643 14.7461 23.1185 14.712 23.173 14.6705C23.2277 14.629 23.2806 14.5949 23.2908 14.5949C23.3079 14.5949 23.485 14.4776 23.5188 14.4438C23.5413 14.4214 23.6486 14.3557 23.7006 14.3325C23.7255 14.3215 23.7527 14.3044 23.7611 14.295C23.7695 14.2854 23.824 14.2515 23.8824 14.2195C23.9407 14.1875 23.9953 14.1535 24.0036 14.1439C24.0325 14.1107 24.2132 13.9905 24.2343 13.9905C24.246 13.9905 24.3001 13.9566 24.3547 13.9149C24.4094 13.8734 24.4623 13.8395 24.4725 13.8395C24.4914 13.8395 24.6735 13.7169 24.7004 13.6861C24.7088 13.6765 24.7633 13.6426 24.8217 13.6105C24.8799 13.5786 24.9344 13.5456 24.9428 13.5372C24.9735 13.5068 25.0807 13.4444 25.1322 13.427C25.1613 13.4174 25.1853 13.3994 25.1853 13.3874C25.1853 13.3755 25.2224 13.3486 25.2678 13.328C25.3411 13.2948 25.3445 13.2872 25.2982 13.2612C25.2694 13.2451 25.2458 13.2123 25.2458 13.1882C25.2458 13.164 25.2253 13.1443 25.2004 13.1443C25.1753 13.1443 25.1544 13.1274 25.1535 13.1066C25.1527 13.0857 25.1171 13.0416 25.0742 13.0083C25.0315 12.9751 24.9195 12.8775 24.8257 12.7914C24.7317 12.7055 24.5684 12.5559 24.4626 12.459C24.357 12.3622 24.2523 12.2726 24.2301 12.2601C24.2078 12.2474 24.1363 12.1863 24.0711 12.1241C23.7024 11.7729 23.5479 11.6587 23.5902 11.7691ZM15.0676 17.1748C15.0656 17.253 14.9131 17.4338 14.848 17.4352C14.8366 17.4356 14.8088 17.4528 14.7861 17.4735C14.7633 17.4943 14.7181 17.5275 14.6855 17.5473C14.6528 17.567 14.517 17.6524 14.3838 17.7371C14.2505 17.8218 14.1142 17.9076 14.0807 17.9279C14.0474 17.948 14.0134 17.9728 14.0051 17.983C13.9967 17.9931 13.9422 18.026 13.8838 18.0557C13.7566 18.1208 13.5999 18.2278 13.5859 18.2593C13.5804 18.2717 13.5653 18.282 13.5524 18.282C13.5328 18.282 13.1772 18.5025 13.0792 18.5754C13.002 18.633 12.9254 18.6778 12.8763 18.6943C12.8472 18.7041 12.8234 18.7221 12.8234 18.7342C12.8234 18.7464 12.7689 18.7808 12.7022 18.8107C12.6355 18.8408 12.5809 18.8751 12.5809 18.8873C12.5809 18.8994 12.54 18.9261 12.49 18.9467C12.44 18.9674 12.3991 18.9962 12.3991 19.0109C12.3991 19.0254 12.3875 19.0374 12.3733 19.0374C12.3517 19.0374 12.0016 19.2534 11.8976 19.331C11.8203 19.3886 11.7438 19.4334 11.6947 19.4499C11.6656 19.4595 11.6418 19.478 11.6418 19.4907C11.6418 19.5032 11.5996 19.531 11.5482 19.5524C11.4969 19.5736 11.4385 19.6059 11.4187 19.624C11.2166 19.809 11.0886 19.8274 11.0021 19.6846C10.9752 19.6403 10.9455 19.6166 10.9359 19.6318C10.9264 19.647 10.9792 19.7252 11.053 19.8053C11.1268 19.8857 11.1873 19.9633 11.1873 19.978C11.1873 19.9926 11.1979 20.0046 11.2106 20.0046C11.2235 20.0046 11.2595 20.0518 11.2907 20.1094C11.3218 20.1671 11.3591 20.2071 11.3733 20.1983C11.3876 20.1896 11.3996 20.2001 11.3998 20.2218C11.4002 20.2436 11.4342 20.2935 11.4756 20.3326C11.5169 20.3718 11.5513 20.4193 11.5516 20.4383C11.5522 20.4574 11.6032 20.529 11.6652 20.5975C11.7272 20.6661 11.7985 20.7528 11.8236 20.7901C11.8485 20.8276 11.887 20.8768 11.909 20.8998C11.931 20.9227 11.9408 20.9413 11.9307 20.9413C11.9207 20.9413 11.9506 20.9789 11.9976 21.0246C12.0445 21.0703 12.0892 21.1212 12.097 21.1379C12.105 21.1544 12.1212 21.1647 12.1332 21.1607C12.1452 21.1568 12.1712 21.1838 12.191 21.2206C12.2108 21.2576 12.2419 21.3045 12.2601 21.325C12.3553 21.4326 12.384 21.4706 12.384 21.4897C12.384 21.5011 12.3964 21.522 12.4117 21.5357C12.4275 21.5502 12.4308 21.5461 12.4193 21.5263C12.4084 21.5073 12.4189 21.4842 12.4429 21.4752C12.4668 21.4661 12.4904 21.4705 12.4957 21.4848C12.5009 21.4993 12.6553 21.4104 12.8385 21.2875C13.0218 21.1646 13.1877 21.0636 13.2072 21.063C13.2266 21.0626 13.247 21.0518 13.2526 21.0391C13.2581 21.0262 13.3377 20.9671 13.4293 20.9076C13.8842 20.6124 13.9618 20.5627 13.9898 20.5486C14.0065 20.5401 14.098 20.4822 14.1929 20.42C14.2879 20.3576 14.3788 20.3067 14.3948 20.3067C14.411 20.3067 14.4287 20.2964 14.4343 20.2835C14.4439 20.2614 14.6252 20.1382 14.9064 19.9631C14.9929 19.9092 15.036 19.8608 15.0375 19.8153C15.0389 19.7781 15.0469 19.7647 15.0553 19.7856C15.0637 19.8066 15.0829 19.816 15.098 19.8068C15.1324 19.7856 15.1293 17.2321 15.0947 17.1487C15.0731 17.0965 15.0695 17.0999 15.0676 17.1748ZM10.6116 19.2584C10.6116 19.2637 10.6559 19.3079 10.7101 19.3567L10.8085 19.4454L10.7196 19.3473C10.6367 19.2557 10.6116 19.2351 10.6116 19.2584Z" fill="#FC5234"/>
<path fill-rule="evenodd" clip-rule="evenodd" d="M24.4329 2.05302C24.4345 2.13154 24.4821 2.26046 24.4832 2.18902C24.4838 2.15565 24.4723 2.10126 24.4581 2.06807C24.4421 2.03108 24.4323 2.02528 24.4329 2.05302ZM24.5238 2.40044C24.5234 2.43381 24.5347 2.48821 24.549 2.52139C24.5821 2.59845 24.5821 2.51903 24.549 2.41568C24.5294 2.35493 24.5245 2.35185 24.5238 2.40044ZM25.0759 4.90802C25.0869 4.98254 25.1246 4.99886 25.1246 4.92905C25.1246 4.89297 25.1122 4.86359 25.0969 4.86359C25.0819 4.86359 25.0724 4.88354 25.0759 4.90802ZM25.1033 5.09768C25.1119 5.14338 25.1289 5.21229 25.1409 5.25073C25.1586 5.30639 25.1498 5.3238 25.0984 5.33722C25.0628 5.34647 25.0337 5.36442 25.0337 5.37711C25.0337 5.3898 24.9928 5.417 24.9428 5.43767C24.8928 5.45834 24.8519 5.48718 24.8519 5.50186C24.8519 5.51637 24.8373 5.52834 24.8197 5.52834C24.8019 5.52834 24.7426 5.56243 24.6879 5.60395C24.6334 5.64548 24.5799 5.67957 24.5692 5.67957C24.5583 5.67957 24.4599 5.74067 24.3503 5.81556C24.2409 5.89027 24.1385 5.95156 24.1229 5.95156C24.1073 5.95156 24.0945 5.96352 24.0945 5.97821C24.0945 5.9929 24.0705 6.01285 24.0415 6.02264C23.9817 6.04258 23.8893 6.10006 23.8304 6.15356C23.8088 6.17314 23.7639 6.19798 23.7308 6.2085C23.6975 6.21901 23.6702 6.24023 23.6702 6.25582C23.6702 6.27124 23.6557 6.28393 23.6381 6.28393C23.6203 6.28393 23.561 6.31802 23.5063 6.35954C23.4517 6.40107 23.3966 6.43497 23.3839 6.43497C23.3712 6.43497 23.3112 6.47251 23.2503 6.5182C23.1027 6.62918 23.0296 6.67505 22.9658 6.69627C22.9367 6.70606 22.9129 6.72455 22.9129 6.73725C22.9129 6.74994 22.8889 6.76843 22.8598 6.77823C22.7991 6.79853 22.7071 6.85583 22.6468 6.91096C22.624 6.93181 22.5939 6.94886 22.5795 6.94886C22.5653 6.94886 22.5355 6.9659 22.5135 6.98657C22.4608 7.03644 22.2226 7.19056 22.1983 7.19056C22.1877 7.19056 22.1296 7.22792 22.0687 7.27361C21.921 7.38476 21.848 7.43046 21.7842 7.45186C21.7551 7.46165 21.7313 7.47851 21.7313 7.48939C21.7313 7.50027 21.68 7.53599 21.6176 7.56881C21.5551 7.60145 21.4971 7.63627 21.4887 7.64624C21.4122 7.73708 21.2615 7.71424 21.1788 7.59928C21.1646 7.57969 21.1562 7.58259 21.1561 7.60707C21.1557 7.62829 21.1759 7.65349 21.2008 7.6631C21.2257 7.67271 21.239 7.69193 21.2302 7.70589C21.2095 7.73926 21.3077 7.78949 21.3731 7.77897C21.406 7.77353 21.4182 7.78568 21.4077 7.81306C21.3973 7.8399 21.412 7.85567 21.4477 7.85585C21.4951 7.85622 21.4967 7.86093 21.4586 7.88559C21.4233 7.90826 21.4224 7.91496 21.4542 7.91533C21.4769 7.91569 21.5567 7.98043 21.6318 8.05948C21.7067 8.13836 21.7585 8.1826 21.7469 8.15758C21.7353 8.13274 21.7718 8.15994 21.8281 8.21815C21.8843 8.27617 22.0032 8.3817 22.0923 8.45224C22.1814 8.52295 22.2426 8.5808 22.2283 8.5808C22.2141 8.5808 22.2363 8.60401 22.2774 8.63248C22.3186 8.66094 22.3766 8.7148 22.4064 8.75197C22.4362 8.78932 22.4788 8.8129 22.501 8.80437C22.5242 8.79531 22.5482 8.81507 22.5575 8.8508C22.5664 8.88489 22.5989 8.92224 22.6297 8.93366C22.6604 8.94491 22.7162 8.98933 22.7536 9.03194C22.7913 9.07473 22.8218 9.09631 22.8218 9.08017C22.822 9.06404 22.8431 9.08108 22.8691 9.11807C22.8951 9.15488 22.936 9.18516 22.96 9.18516C22.984 9.18516 23.0038 9.20547 23.0038 9.23049C23.0038 9.25534 23.0242 9.27583 23.0492 9.27583C23.0741 9.27583 23.0912 9.29287 23.0871 9.31354C23.0829 9.33439 23.0965 9.34799 23.1174 9.34382C23.1381 9.33965 23.1552 9.3576 23.1552 9.38372C23.1552 9.41654 23.1729 9.42542 23.2132 9.41255C23.2452 9.40257 23.2814 9.41055 23.2938 9.43032C23.3077 9.45317 23.3032 9.4586 23.281 9.445C23.2619 9.43304 23.2461 9.43685 23.2461 9.45335C23.2461 9.55888 23.7175 9.33494 23.9913 9.09921C24.0095 9.08362 24.0709 9.04681 24.1276 9.01743C24.2532 8.9527 24.409 8.8459 24.4227 8.81489C24.4283 8.80256 24.4459 8.79223 24.4618 8.79223C24.4778 8.79223 24.5278 8.7672 24.5728 8.73656C24.6181 8.70591 24.7165 8.64136 24.7914 8.59313C24.8662 8.5449 24.9344 8.49848 24.9428 8.49014C24.9731 8.45967 25.0806 8.3973 25.1322 8.37989C25.1613 8.3701 25.1853 8.35269 25.1853 8.34108C25.1853 8.32948 25.2358 8.29593 25.2978 8.26638C25.3596 8.237 25.4585 8.17499 25.5174 8.12893C25.5763 8.08269 25.6563 8.03501 25.6949 8.02304C25.7399 8.00889 25.7592 7.98514 25.7483 7.95685C25.739 7.93255 25.7434 7.92023 25.7581 7.92929C25.7728 7.93836 25.7923 7.92657 25.8012 7.90318C25.8103 7.87961 25.7965 7.85241 25.7708 7.84244C25.7334 7.82811 25.7281 7.79638 25.7447 7.68559C25.759 7.59057 25.7554 7.55304 25.7334 7.56664C25.7125 7.57951 25.7049 7.55413 25.7118 7.49501C25.7178 7.44478 25.7109 7.4107 25.6965 7.41958C25.6821 7.42847 25.6703 7.40435 25.6701 7.36591C25.6694 7.24224 25.6512 7.14668 25.6158 7.08122C25.5969 7.04605 25.588 7.01051 25.5961 7.00235C25.6043 6.99419 25.5971 6.95067 25.58 6.90588C25.5629 6.86109 25.5432 6.78095 25.5361 6.72782C25.5291 6.67487 25.5011 6.54304 25.4742 6.43497C25.4473 6.3269 25.4191 6.2114 25.4118 6.17822C25.4045 6.14485 25.3698 5.99525 25.3347 5.84566C25.2996 5.69606 25.2647 5.53287 25.2569 5.48301C25.2264 5.28554 25.1764 5.1374 25.1468 5.15571C25.1269 5.16786 25.1231 5.14592 25.136 5.09479C25.1489 5.04347 25.1438 5.01464 25.1218 5.01464C25.1008 5.01464 25.0935 5.04673 25.1033 5.09768ZM20.9434 7.44152C20.9434 7.44696 20.9861 7.4912 21.0381 7.53998C21.1044 7.60218 21.1212 7.60979 21.0943 7.56519C21.061 7.51042 20.9434 7.41396 20.9434 7.44152ZM10.7158 7.73654C10.6669 7.78749 10.6472 7.82086 10.6723 7.8107C10.713 7.79438 10.8423 7.64388 10.8156 7.64388C10.8096 7.64388 10.7647 7.68559 10.7158 7.73654ZM16.8045 8.18786C16.8045 8.42885 16.8092 8.52749 16.8151 8.40691C16.8207 8.2865 16.8207 8.08922 16.8151 7.96882C16.8092 7.84824 16.8045 7.94688 16.8045 8.18786ZM19.6406 8.26384C19.6406 8.27635 19.6746 8.31824 19.7163 8.35668C19.7875 8.4225 19.8183 8.42105 19.7688 8.35414C19.7315 8.30355 19.6406 8.23936 19.6406 8.26384ZM19.8526 8.48633C19.8526 8.52441 19.9415 8.59277 19.9631 8.57137C19.973 8.5614 19.9601 8.53238 19.9342 8.50664C19.8815 8.45405 19.8526 8.44698 19.8526 8.48633ZM19.9661 8.64698C19.9917 8.67781 19.9801 8.68724 19.913 8.6896C19.8659 8.69123 19.775 8.73293 19.7112 8.78225C19.5605 8.89848 19.1958 9.12478 19.1591 9.12478C19.1434 9.12478 19.126 9.13494 19.1205 9.14745C19.1149 9.15978 19.0558 9.20583 18.9891 9.24972C18.6264 9.48816 18.1578 9.7859 18.0651 9.83703C18.0067 9.86913 17.9522 9.90285 17.9438 9.91228C17.9296 9.92806 17.7357 10.0544 17.1734 10.4146C17.0388 10.5005 16.913 10.5848 16.8938 10.6019C16.8676 10.6251 16.8538 10.5509 16.8391 10.3094C16.8281 10.1315 16.814 9.9656 16.8074 9.94075C16.8007 9.91573 16.8014 10.7235 16.8089 11.7355C16.8236 13.706 16.8231 13.7008 16.9696 13.6005C17.0138 13.57 17.125 13.4978 17.2166 13.4398C17.3084 13.382 17.4651 13.2817 17.5651 13.2168C17.6651 13.1521 17.7606 13.0922 17.7773 13.0839C17.7938 13.0754 17.9098 13.0017 18.0347 12.9201C18.1598 12.8385 18.3301 12.7283 18.4136 12.6753C18.4968 12.6224 18.6468 12.5261 18.7468 12.4614C18.8468 12.3965 18.9422 12.3366 18.9589 12.3283C18.9755 12.3199 19.0845 12.2507 19.2013 12.1745C19.7548 11.8128 19.8732 11.737 19.9435 11.6994C19.9851 11.6773 20.0397 11.6414 20.0648 11.6198C20.0897 11.5983 20.1239 11.5754 20.1406 11.5691C20.1571 11.5627 20.2696 11.4929 20.3905 11.414C20.5112 11.335 20.709 11.2059 20.8297 11.1268C20.9506 11.0479 21.0632 10.9778 21.0797 10.9707C21.0964 10.9638 21.185 10.9081 21.2768 10.8468C21.5747 10.6479 21.7743 10.5225 21.8894 10.4619C21.9998 10.4039 22.017 10.3547 21.9176 10.3814C21.8901 10.3888 21.9085 10.3736 21.9585 10.3476C22.0316 10.3098 22.0356 10.3032 21.9789 10.3148C21.9245 10.3259 21.9123 10.3183 21.9261 10.2827C21.9381 10.2514 21.9301 10.2414 21.902 10.2523C21.8778 10.2615 21.8436 10.2378 21.8214 10.1962C21.8001 10.1565 21.7687 10.1326 21.7518 10.1431C21.7331 10.1545 21.7285 10.1422 21.7402 10.1119C21.7509 10.0842 21.7463 10.0599 21.7302 10.0579C21.7142 10.0557 21.6883 10.0523 21.6731 10.0503C21.6578 10.0481 21.634 10.0341 21.6202 10.0189C21.6051 10.0026 21.6135 10.0013 21.6404 10.0158C21.678 10.0361 21.6791 10.033 21.6464 9.99805C21.6247 9.97484 21.5905 9.95526 21.5705 9.95435C21.5506 9.95363 21.5376 9.93676 21.5418 9.91664C21.546 9.89669 21.5298 9.88019 21.5058 9.88019C21.4817 9.88019 21.4524 9.8646 21.4404 9.84538C21.4262 9.82235 21.4322 9.81872 21.4586 9.83486C21.4829 9.84991 21.4907 9.84755 21.4789 9.82833C21.4684 9.81147 21.4188 9.78046 21.3686 9.75979C21.3186 9.73912 21.285 9.7101 21.294 9.69542C21.3031 9.68073 21.298 9.66876 21.2826 9.66876C21.2671 9.66876 21.1873 9.60403 21.1052 9.52515C21.023 9.44627 20.8894 9.32714 20.8085 9.26078C20.6051 9.09396 20.3978 8.91118 20.32 8.83013C20.2842 8.79259 20.2407 8.76213 20.2237 8.76213C20.2064 8.76213 20.1842 8.74073 20.1742 8.7148C20.1642 8.68887 20.142 8.67618 20.1248 8.68688C20.1077 8.69739 20.0973 8.68978 20.1019 8.66983C20.1064 8.64989 20.0704 8.62758 20.0217 8.62051C19.9515 8.61017 19.9401 8.61561 19.9661 8.64698ZM16.8034 9.03412C16.8034 9.19187 16.8085 9.2566 16.8149 9.17755C16.8211 9.09867 16.8211 8.96938 16.8149 8.89051C16.8085 8.81163 16.8034 8.87618 16.8034 9.03412ZM16.8007 9.75943C16.8007 9.83413 16.8067 9.86478 16.814 9.82742C16.8211 9.78989 16.8211 9.72878 16.814 9.69143C16.8067 9.65389 16.8007 9.68454 16.8007 9.75943ZM10.5567 9.73023C10.5202 9.76414 10.4903 9.80059 10.4903 9.8111C10.4903 9.82162 10.5245 9.79841 10.5662 9.75943C10.6372 9.69288 10.6549 9.66876 10.6325 9.66876C10.6272 9.66876 10.5932 9.6965 10.5567 9.73023ZM15.094 11.0211C15.0929 11.2663 15.0819 11.5297 15.0691 11.6064C15.0564 11.6831 15.0568 11.7747 15.0697 11.8099C15.0906 11.8661 15.0868 11.8697 15.0388 11.8398C14.9891 11.809 14.861 11.8674 14.7624 11.9655C14.7541 11.9738 14.6996 12.0068 14.6414 12.0387C14.583 12.0708 14.4421 12.1591 14.3281 12.2353C14.2142 12.3112 14.0987 12.387 14.0716 12.4037C13.8982 12.51 13.5935 12.7062 13.5808 12.7198C13.5724 12.7288 13.5179 12.7624 13.4597 12.7943C13.4014 12.8264 13.3468 12.8603 13.3385 12.8699C13.3301 12.8795 13.2756 12.9132 13.2172 12.9452C13.1589 12.9769 13.0616 13.0414 13.0009 13.0886C12.9402 13.1357 12.8816 13.1744 12.8711 13.1744C12.8513 13.1744 12.4268 13.4454 12.3992 13.4757C12.3908 13.4848 12.333 13.5191 12.2704 13.5517C12.2079 13.5845 12.1568 13.6201 12.1568 13.6309C12.1568 13.642 12.133 13.6589 12.1037 13.6687C12.0401 13.6899 11.9669 13.7357 11.8192 13.8467C11.7585 13.8924 11.7 13.93 11.6894 13.93C11.6696 13.93 11.2451 14.201 11.2175 14.2311C11.2091 14.2404 11.1513 14.2745 11.0888 14.3073C11.0263 14.3399 10.9752 14.3757 10.9752 14.3865C10.9752 14.3974 10.9514 14.4145 10.9221 14.4241C10.8585 14.4455 10.7852 14.4913 10.6376 14.6023C10.5769 14.648 10.5167 14.6854 10.504 14.6854C10.4914 14.6854 10.4364 14.7194 10.3816 14.761C10.3271 14.8025 10.2678 14.8366 10.25 14.8366C10.2322 14.8366 10.2177 14.8486 10.2177 14.8631C10.2177 14.8777 10.1768 14.9066 10.1268 14.9272C10.0768 14.9479 10.0357 14.9733 10.0355 14.9838C10.0353 14.9942 9.98078 15.0288 9.91443 15.0605C9.84789 15.0923 9.79354 15.128 9.79354 15.1401C9.79354 15.1521 9.76972 15.1699 9.74045 15.1797C9.689 15.1969 9.58175 15.2593 9.55121 15.2899C9.51467 15.3264 9.3396 15.4409 9.32033 15.4409C9.30888 15.4409 9.25471 15.475 9.19999 15.5166C9.14545 15.5581 9.08619 15.592 9.06837 15.592C9.05055 15.592 9.03601 15.604 9.03601 15.6186C9.03601 15.6332 8.99511 15.662 8.94511 15.6827C8.89512 15.7033 8.85422 15.7302 8.85422 15.7423C8.85422 15.7543 8.79968 15.7887 8.73315 15.8187C8.66643 15.8488 8.61189 15.8848 8.61189 15.8988C8.61189 15.9129 8.59807 15.9245 8.58135 15.9245C8.53263 15.9245 8.30902 16.0957 8.33011 16.1169C8.39592 16.1826 8.28794 16.1197 8.20995 16.0468C8.15723 15.9978 8.10687 15.9648 8.09797 15.9739C8.08906 15.9828 8.11996 16.023 8.16668 16.0631C8.21358 16.1033 8.24431 16.1481 8.23522 16.1628C8.22613 16.1775 8.24722 16.1971 8.28194 16.2061C8.31684 16.2152 8.33738 16.2353 8.32775 16.2509C8.31811 16.2663 8.3372 16.3033 8.37029 16.3331C8.40319 16.3628 8.4301 16.4043 8.4301 16.4252C8.4301 16.446 8.47209 16.4983 8.52336 16.5414C8.57462 16.5844 8.60607 16.6196 8.59335 16.6196C8.58062 16.6196 8.60007 16.6473 8.63643 16.6812C8.67297 16.7151 8.70279 16.7626 8.70279 16.7869C8.70279 16.8112 8.72315 16.8312 8.74823 16.8312C8.77314 16.8312 8.79368 16.8515 8.79368 16.8765C8.79368 16.9014 8.80732 16.9218 8.82404 16.9218C8.84059 16.9218 8.85422 16.9414 8.85422 16.9655C8.85422 16.9897 8.87822 17.0234 8.9073 17.0403C8.93639 17.0571 8.95111 17.0714 8.93984 17.072C8.92875 17.0725 8.95602 17.1117 9.00056 17.1592C9.11364 17.2796 9.2158 17.4053 9.20035 17.4053C9.19326 17.4053 9.21489 17.4325 9.24816 17.4658C9.28143 17.499 9.3087 17.5405 9.3087 17.5583C9.3087 17.5759 9.32233 17.5819 9.33906 17.5715C9.35578 17.5612 9.36942 17.5741 9.36942 17.6C9.36942 17.6259 9.38305 17.6472 9.39959 17.6472C9.41632 17.6472 9.42995 17.6684 9.42995 17.6943C9.42995 17.7224 9.44413 17.7326 9.4654 17.7195C9.4894 17.7046 9.49449 17.7142 9.48085 17.7494C9.46904 17.7802 9.47304 17.7938 9.49085 17.7828C9.5074 17.7726 9.52085 17.7864 9.52085 17.8132C9.52085 17.843 9.53485 17.8537 9.5563 17.8403C9.58011 17.8258 9.58538 17.835 9.57248 17.8684C9.56193 17.8959 9.56303 17.917 9.57502 17.9152C9.62629 17.9075 9.67192 17.9208 9.66628 17.9418C9.65465 17.9855 9.70737 18.1012 9.73191 18.086C9.74572 18.0774 9.76463 18.0909 9.77427 18.1157C9.7919 18.1614 9.88443 18.1801 9.88443 18.138C9.88443 18.1255 9.9257 18.097 9.97605 18.0747C10.0264 18.0524 10.0842 18.0185 10.1048 17.9993C10.1253 17.9801 10.1931 17.9375 10.2557 17.9046C10.318 17.8718 10.3693 17.8376 10.3693 17.8285C10.3693 17.8194 10.4204 17.7855 10.4829 17.7532C10.5452 17.721 10.6461 17.6568 10.7069 17.6103C10.7676 17.5641 10.8261 17.5262 10.8368 17.5262C10.855 17.5262 11.0323 17.4093 11.0661 17.3748C11.0744 17.3663 11.1324 17.3327 11.1948 17.2999C11.2573 17.2673 11.3084 17.2316 11.3084 17.2207C11.3084 17.2098 11.3324 17.1927 11.3615 17.1831C11.4169 17.1645 11.5249 17.1005 11.5509 17.0705C11.5593 17.0611 11.6136 17.027 11.672 16.9951C11.7303 16.963 11.8278 16.8995 11.8885 16.8539C11.9492 16.8082 12.0087 16.7706 12.0205 16.7706C12.0323 16.7706 12.0917 16.7318 12.1525 16.6841C12.2132 16.6366 12.3106 16.5735 12.369 16.544C12.4272 16.5144 12.4817 16.4819 12.4901 16.4718C12.5146 16.4419 12.6222 16.3775 12.6795 16.3583C12.7086 16.3485 12.7326 16.3316 12.7326 16.3207C12.7326 16.3099 12.7836 16.2741 12.8462 16.2413C12.9085 16.2087 12.9665 16.175 12.9749 16.1666C13.0087 16.1322 13.186 16.0152 13.2041 16.0152C13.2149 16.0152 13.2734 15.9762 13.3341 15.9287C13.3948 15.881 13.4923 15.8179 13.5506 15.7884C13.6088 15.7588 13.6633 15.7254 13.6717 15.714C13.6801 15.7026 13.7342 15.6671 13.792 15.6351C13.8499 15.6031 13.9113 15.5659 13.9284 15.5525C13.9926 15.5024 14.3749 15.2596 14.3898 15.2596C14.3983 15.2596 14.455 15.2206 14.5158 15.1731C14.5765 15.1254 14.6726 15.0629 14.7294 15.0339C14.9561 14.9182 15.0559 14.8029 15.0779 14.6313C15.1024 14.438 15.1369 10.5754 15.114 10.5754C15.104 10.5754 15.0949 10.7759 15.094 11.0211Z" fill="#FC8C1C"/>
<path fill-rule="evenodd" clip-rule="evenodd" d="M8.13453 0.0181979C8.11362 0.026539 8.10417 0.0457583 8.11363 0.0609897C8.12308 0.0762212 8.11544 0.0885502 8.0969 0.0885502C8.07818 0.0885502 8.07072 0.101062 8.08017 0.116293C8.08963 0.131525 8.08163 0.182478 8.06236 0.229623C8.04309 0.276768 8.02182 0.376498 8.01509 0.451204C8.00837 0.526093 7.98982 0.600258 7.97401 0.616033C7.95819 0.631808 7.94528 0.717213 7.94528 0.805882C7.94528 0.921206 7.93238 0.971795 7.89984 0.984307C7.8702 0.99573 7.85439 1.0427 7.85439 1.1194C7.85439 1.18413 7.84294 1.23708 7.82912 1.23708C7.81512 1.23708 7.80185 1.28622 7.79949 1.34624C7.79731 1.40644 7.78185 1.47208 7.76513 1.49202C7.7484 1.51215 7.72913 1.58867 7.72241 1.66229C7.7155 1.73591 7.69569 1.83219 7.67805 1.87607C7.6606 1.92014 7.65442 1.9642 7.66442 1.97417C7.68405 1.99376 7.58498 2.32142 7.54516 2.36874C7.53207 2.38452 7.52117 2.44653 7.52117 2.50637C7.52117 2.56621 7.50644 2.62967 7.48862 2.64762C7.47081 2.66539 7.45372 2.74971 7.45081 2.83493C7.4479 2.92016 7.43681 2.98978 7.42627 2.98978C7.41554 2.98978 7.39755 3.06467 7.3861 3.15606C7.37464 3.24745 7.3541 3.32234 7.34028 3.32234C7.32647 3.32234 7.3072 3.38689 7.29756 3.46577C7.28084 3.60122 7.2612 3.71147 7.24739 3.74538C7.24412 3.75372 7.24302 3.77131 7.24539 3.78436C7.24757 3.7976 7.23594 3.83314 7.21957 3.86378C7.20321 3.89425 7.18376 3.98255 7.17667 4.05998C7.1694 4.13722 7.15122 4.21719 7.13613 4.2375C7.12122 4.25763 7.10505 4.32091 7.10014 4.37785C7.09523 4.43478 7.07087 4.51239 7.04614 4.55029C7.02124 4.58818 7.0107 4.63479 7.02251 4.65401C7.03433 4.67323 7.02996 4.69771 7.01251 4.70841C6.99524 4.7191 6.96597 4.823 6.94779 4.93923C6.92961 5.05547 6.90707 5.19817 6.89762 5.25637C6.88835 5.31458 6.86908 5.38947 6.8549 5.42265C6.82745 5.48612 6.80054 5.59872 6.77346 5.76264C6.76437 5.81668 6.74528 5.86092 6.7311 5.86092C6.71674 5.86092 6.71292 5.88123 6.72237 5.90625C6.73201 5.9311 6.72819 5.95159 6.71383 5.95159C6.69947 5.95159 6.6862 6.0223 6.68456 6.10879C6.68292 6.19728 6.66638 6.2709 6.64693 6.27743C6.62657 6.28414 6.61221 6.35613 6.61221 6.45024C6.61221 6.5389 6.59948 6.61597 6.58385 6.62141C6.56821 6.62703 6.54985 6.66547 6.54313 6.70699C6.53622 6.7487 6.51586 6.81869 6.4975 6.86293C6.47932 6.907 6.44932 7.05659 6.43114 7.19531C6.41278 7.33402 6.38951 7.46784 6.37915 7.49287C6.35752 7.546 6.3457 7.60039 6.33334 7.70429C6.32843 7.746 6.30734 7.79786 6.28643 7.8198C6.26571 7.84174 6.24862 7.8907 6.24862 7.92841C6.24862 7.96631 6.22172 8.07747 6.18881 8.17556C6.15591 8.27384 6.12864 8.42996 6.1281 8.5228C6.12773 8.61564 6.11791 8.70105 6.10628 8.71265C6.09483 8.72408 6.08228 8.75436 6.07847 8.77975C6.07283 8.81837 6.02556 8.96959 5.95194 9.18519C5.93376 9.23868 5.91722 9.35165 5.91231 9.45718C5.91031 9.49871 5.89686 9.5473 5.88249 9.56507C5.86795 9.58302 5.85195 9.65102 5.84668 9.71648C5.84141 9.78194 5.82541 9.85447 5.81087 9.87768C5.79651 9.90089 5.77942 9.96816 5.77287 10.0271C5.76633 10.086 5.74633 10.152 5.72852 10.1734C5.71052 10.195 5.70343 10.2128 5.71252 10.2128C5.72179 10.2128 5.71543 10.2568 5.69852 10.3109C5.68161 10.3649 5.66144 10.4499 5.65344 10.4998C5.64544 10.5497 5.63326 10.6177 5.62635 10.6509C5.58817 10.8344 5.56272 10.9985 5.57236 10.9985C5.57854 10.9985 5.56091 11.0329 5.53327 11.075C5.50564 11.1171 5.49037 11.1589 5.49946 11.1678C5.50855 11.1769 5.50237 11.2275 5.48564 11.2802C5.46892 11.333 5.43711 11.4511 5.41456 11.5424C5.3922 11.6338 5.35893 11.7631 5.34076 11.8295C5.28985 12.0152 5.26986 12.3584 5.30967 12.3584C5.32821 12.3584 5.33548 12.3711 5.32585 12.3865C5.28404 12.4538 5.36748 12.4393 5.4511 12.3646C5.62708 12.2077 5.7038 12.1468 5.72616 12.1466C5.73852 12.1464 5.80287 12.0853 5.86886 12.0106C5.93503 11.9359 5.99721 11.8748 6.00702 11.8748C6.01684 11.8748 6.09047 11.8139 6.17082 11.7394C6.25099 11.6647 6.3577 11.5729 6.40787 11.5354C6.45805 11.4977 6.56403 11.4057 6.64329 11.3308C6.72274 11.2561 6.85999 11.1337 6.94852 11.0588C7.03706 10.9841 7.18085 10.8568 7.26793 10.776C7.35519 10.6951 7.4579 10.6073 7.49644 10.5807C7.53498 10.554 7.6446 10.4568 7.74004 10.3649C7.83548 10.273 7.95765 10.1636 8.01146 10.1221C8.06509 10.0806 8.12981 10.0227 8.15526 9.99355C8.18053 9.96453 8.2127 9.94078 8.2267 9.94078C8.2407 9.94078 8.32323 9.86934 8.41013 9.78212C8.49684 9.69472 8.60065 9.60297 8.64064 9.57813C8.73699 9.51793 8.91496 9.33878 8.91496 9.30179C8.91496 9.28547 8.92605 9.27912 8.93951 9.28746C8.95314 9.2958 9.02295 9.24902 9.09476 9.18356C9.16675 9.11792 9.21365 9.06388 9.19892 9.06334C9.18438 9.0628 9.19965 9.04666 9.2331 9.02744C9.26637 9.00822 9.29473 8.99842 9.29618 9.00568C9.29745 9.01293 9.34854 8.96615 9.4098 8.90141C9.47088 8.83668 9.52087 8.79371 9.52087 8.80549C9.52087 8.81746 9.58868 8.75472 9.67158 8.66623C9.75466 8.57775 9.83465 8.50521 9.84974 8.50521C9.87392 8.50521 9.94499 8.44302 10.2057 8.19406C10.2457 8.15598 10.2784 8.13313 10.2784 8.14329C10.2784 8.15362 10.3371 8.10321 10.4089 8.03141C10.6507 7.78952 10.9145 7.55325 10.9427 7.55325C10.9581 7.55325 11.0541 7.47201 11.1561 7.37283C11.2581 7.27364 11.3817 7.16865 11.431 7.13964C11.4802 7.11063 11.5206 7.06947 11.5206 7.04807C11.5206 7.02667 11.5377 7.00927 11.5588 7.00927C11.5797 7.00927 11.6138 6.98207 11.6347 6.94888C11.6555 6.91552 11.692 6.88832 11.7158 6.88832C11.7395 6.88832 11.7675 6.86112 11.7782 6.82794C11.7887 6.79476 11.8104 6.76756 11.8262 6.76756C11.842 6.76756 11.9013 6.71987 11.958 6.66166C12.0145 6.60345 12.0685 6.55595 12.0778 6.55595C12.087 6.55595 12.1545 6.49811 12.2278 6.42757C12.3008 6.35685 12.4259 6.24461 12.5054 6.17824C12.743 5.97969 12.8878 5.85149 12.9924 5.74759C13.0467 5.69356 13.0996 5.64931 13.11 5.64931C13.1203 5.64931 13.1591 5.62103 13.1958 5.58657C13.2327 5.55212 13.3354 5.46037 13.4241 5.38258C13.513 5.30497 13.6465 5.18348 13.7208 5.11295C13.7952 5.04223 13.869 4.98438 13.885 4.98438C13.9011 4.98438 13.9142 4.97097 13.9142 4.95447C13.9142 4.93796 13.9617 4.8939 14.0199 4.85637C14.078 4.81865 14.1257 4.77332 14.1258 4.75537C14.126 4.73742 14.1598 4.70478 14.2009 4.68284C14.242 4.6609 14.2685 4.63134 14.2598 4.6172C14.2511 4.60305 14.2642 4.59163 14.2889 4.59163C14.3138 4.59163 14.3554 4.57023 14.3816 4.54412C14.4078 4.51801 14.4293 4.50441 14.4293 4.51384C14.4293 4.52327 14.4543 4.50731 14.4851 4.4783C14.5158 4.44911 14.5354 4.4152 14.5287 4.40269C14.522 4.39018 14.5298 4.38002 14.5461 4.38002C14.5623 4.38002 14.6219 4.33578 14.6787 4.28174C14.8121 4.15463 15.3357 3.6966 15.5318 3.53558C15.5633 3.50965 15.6485 3.42878 15.7212 3.3557C15.7938 3.28263 15.8532 3.23222 15.8532 3.24346C15.8532 3.25489 15.883 3.23639 15.9196 3.20248C16.0045 3.1236 16.0232 3.12505 16.1081 3.21644C16.1468 3.25815 16.1892 3.29206 16.2023 3.29206C16.2154 3.29206 16.2819 3.34591 16.3502 3.41174C16.6282 3.67937 16.7355 3.77566 16.7558 3.77566C16.7962 3.77566 16.9431 3.91764 16.9233 3.9374C16.9125 3.9481 16.9273 3.95699 16.956 3.95699C16.9847 3.95699 16.9998 3.97058 16.9894 3.98708C16.9792 4.00377 16.9847 4.01737 17.0018 4.01737C17.0189 4.01737 17.08 4.06161 17.1372 4.11565C17.3217 4.28918 17.5672 4.49807 17.6966 4.59163C17.766 4.64168 17.8228 4.69607 17.8228 4.71258C17.8228 4.72908 17.844 4.74268 17.87 4.74268C17.8958 4.74268 17.9087 4.75628 17.8984 4.77296C17.8882 4.78946 17.8926 4.80306 17.9084 4.80306C17.9242 4.80306 18.0145 4.87795 18.1093 4.96933C18.2038 5.06072 18.3009 5.13561 18.3247 5.13561C18.3485 5.13561 18.3647 5.15248 18.3605 5.17333C18.3563 5.19418 18.37 5.20778 18.3909 5.20361C18.4116 5.19944 18.4287 5.21866 18.4287 5.2464C18.4287 5.27415 18.4365 5.28902 18.4461 5.27941C18.4612 5.26417 18.5992 5.3775 18.8048 5.5737C18.8395 5.60706 18.8782 5.63082 18.8908 5.62665C18.9031 5.62248 18.9135 5.63372 18.9135 5.65149C18.9135 5.6941 18.9908 5.77026 19.0342 5.77026C19.0531 5.77026 19.0588 5.78585 19.0469 5.80507C19.0346 5.82484 19.0384 5.83191 19.0558 5.82103C19.0728 5.81069 19.1702 5.88322 19.2727 5.98223C19.3751 6.08123 19.4589 6.15467 19.4589 6.14524C19.4589 6.13581 19.4951 6.17117 19.5394 6.22376C19.5838 6.27634 19.6519 6.33146 19.691 6.34633C19.7299 6.36102 19.7617 6.3962 19.7617 6.4243C19.7617 6.45241 19.7701 6.4671 19.7801 6.45694C19.7903 6.44697 19.8181 6.45495 19.8421 6.47471C19.8999 6.52222 20.2219 6.82322 20.4191 7.0138C20.5058 7.09757 20.5911 7.15705 20.6087 7.14617C20.6265 7.13529 20.6536 7.15777 20.6691 7.19622C20.6845 7.23466 20.6982 7.25551 20.6991 7.24245C20.7002 7.2294 20.7287 7.23339 20.7625 7.25152C20.7963 7.26947 20.8181 7.29377 20.811 7.30537C20.8041 7.31716 20.8174 7.34418 20.8405 7.36557C20.8638 7.38697 20.8829 7.39658 20.8829 7.38697C20.8829 7.37736 20.9019 7.38715 20.9252 7.40855C20.9483 7.42994 20.9599 7.45986 20.9507 7.47473C20.9416 7.48978 20.9494 7.49268 20.9681 7.48108C20.987 7.46947 21.0319 7.49414 21.0683 7.53584C21.1046 7.57755 21.1483 7.60311 21.1652 7.59259C21.1837 7.58117 21.1886 7.59314 21.1774 7.62233C21.1635 7.65824 21.1715 7.66603 21.2075 7.65243C21.2399 7.63992 21.249 7.64554 21.2346 7.66857C21.2201 7.69233 21.2299 7.69722 21.265 7.6838C21.2983 7.67093 21.3097 7.67564 21.2968 7.69649C21.2844 7.71626 21.2975 7.72533 21.3297 7.71916C21.3588 7.71354 21.3921 7.70792 21.4033 7.70665C21.4146 7.70538 21.4419 7.68725 21.4639 7.66658C21.486 7.64572 21.5551 7.60184 21.6177 7.56902C21.68 7.5362 21.7313 7.5003 21.7313 7.48942C21.7313 7.47854 21.7551 7.46168 21.7842 7.45188C21.848 7.43049 21.9211 7.38479 22.0687 7.27364C22.1296 7.22794 22.1878 7.19059 22.1983 7.19059C22.2227 7.19059 22.4608 7.03646 22.5135 6.9866C22.5355 6.96593 22.5653 6.94888 22.5795 6.94888C22.5939 6.94888 22.6241 6.93184 22.6468 6.91098C22.7071 6.85586 22.7991 6.79856 22.8598 6.77825C22.8889 6.76846 22.9129 6.74997 22.9129 6.73728C22.9129 6.72458 22.9367 6.70609 22.9658 6.6963C23.0296 6.67508 23.1027 6.62921 23.2503 6.51823C23.3112 6.47254 23.3712 6.435 23.3839 6.435C23.3967 6.435 23.4518 6.4011 23.5063 6.35957C23.561 6.31787 23.6203 6.28396 23.6381 6.28396C23.6557 6.28396 23.6703 6.27126 23.6703 6.25585C23.6703 6.24026 23.6975 6.21904 23.7308 6.20852C23.7639 6.19801 23.8088 6.17317 23.8304 6.15358C23.8893 6.10009 23.9817 6.04261 24.0415 6.02267C24.0706 6.01287 24.0946 5.99293 24.0946 5.97824C24.0946 5.96355 24.1073 5.95159 24.1229 5.95159C24.1386 5.95159 24.2409 5.8903 24.3504 5.81559C24.46 5.7407 24.5583 5.67959 24.5692 5.67959C24.58 5.67959 24.6334 5.6455 24.6879 5.60398C24.7427 5.56246 24.8019 5.52837 24.8197 5.52837C24.8374 5.52837 24.8519 5.5164 24.8519 5.50189C24.8519 5.4872 24.8928 5.45837 24.9428 5.4377C24.9928 5.41703 25.0337 5.38983 25.0337 5.37714C25.0337 5.36445 25.0628 5.3465 25.0984 5.33725C25.1499 5.32383 25.1586 5.30642 25.141 5.25075C25.0953 5.10587 25.0877 5.01467 25.1211 5.01467C25.1397 5.01467 25.1548 4.99091 25.1544 4.96172C25.1541 4.91657 25.1497 4.91548 25.1246 4.95429C25.1084 4.97913 25.0933 4.98928 25.091 4.97695C25.0764 4.8988 25.0782 4.87505 25.1012 4.84404C25.1164 4.82337 25.1082 4.79091 25.0806 4.76335C25.0457 4.72871 25.0435 4.71366 25.0719 4.70224C25.1008 4.69045 25.101 4.68646 25.0726 4.68465C25.0522 4.68338 25.0435 4.66181 25.0532 4.63696C25.063 4.61122 25.0539 4.59163 25.0319 4.59163C25.0108 4.59163 25.0012 4.58383 25.0108 4.57422C25.0204 4.56461 25.015 4.51366 24.9988 4.46089C24.9826 4.40813 24.9655 4.33632 24.9608 4.30151C24.9561 4.26669 24.9424 4.22263 24.9306 4.20341C24.9186 4.18401 24.9261 4.16841 24.9472 4.16841C24.9768 4.16841 24.9772 4.16043 24.949 4.13215C24.929 4.1122 24.9126 4.0578 24.9126 4.01138C24.9126 3.96478 24.9001 3.9267 24.885 3.9267C24.8697 3.9267 24.861 3.89243 24.8657 3.85036C24.8703 3.80848 24.8623 3.76677 24.8479 3.75789C24.8336 3.749 24.8217 3.70258 24.8217 3.65471C24.8217 3.60684 24.8081 3.55915 24.7914 3.549C24.7747 3.53866 24.761 3.48427 24.761 3.42805C24.761 3.37184 24.7492 3.31853 24.7348 3.30965C24.7205 3.30076 24.711 3.26268 24.7139 3.22479C24.7168 3.18707 24.7078 3.12361 24.6938 3.0839C24.6799 3.04419 24.6607 2.96259 24.6512 2.90257C24.6418 2.84255 24.6254 2.77981 24.615 2.76313C24.6047 2.74663 24.5925 2.70982 24.5881 2.68135C24.5838 2.65306 24.545 2.49839 24.5021 2.33773C24.4592 2.17708 24.4307 2.02857 24.4387 2.00772C24.4467 1.98687 24.4347 1.9341 24.412 1.89058C24.3894 1.84688 24.3785 1.81116 24.3878 1.81116C24.3973 1.81116 24.3862 1.78813 24.3633 1.76002C24.3405 1.73192 24.3371 1.71814 24.356 1.72938C24.3783 1.7428 24.3753 1.7069 24.3469 1.62475C24.3231 1.55603 24.2975 1.43871 24.29 1.36382C24.2824 1.28912 24.2609 1.20952 24.2422 1.18721C24.2236 1.16473 24.2164 1.14642 24.2264 1.14642C24.2364 1.14642 24.2311 1.11142 24.2149 1.06863C24.1986 1.02583 24.1767 0.92048 24.1664 0.83435C24.156 0.748401 24.1349 0.669887 24.1195 0.660095C24.104 0.650122 24.0937 0.629813 24.0966 0.614763C24.0993 0.599532 24.0993 0.580492 24.0964 0.572151C24.0935 0.56381 24.0855 0.503791 24.0786 0.438513C24.0718 0.373417 24.054 0.312128 24.0391 0.302518C24.0244 0.292907 24.016 0.260268 24.0208 0.229805C24.0255 0.199524 24.0029 0.148389 23.971 0.116476C23.939 0.0845622 23.923 0.0582701 23.9355 0.0579075C23.9479 0.0577262 23.9377 0.0443077 23.9128 0.0281696C23.8661 -0.00193074 8.20979 -0.0119024 8.13453 0.0181979ZM14.8935 5.9592C14.8632 5.99673 14.8028 6.05005 14.7596 6.07779C14.7163 6.10553 14.6278 6.17697 14.5627 6.23681C14.4976 6.29647 14.378 6.40291 14.2967 6.47326C14.2155 6.54362 14.0982 6.65223 14.0362 6.71461C13.9742 6.77699 13.9101 6.82794 13.8939 6.82794C13.8775 6.82794 13.825 6.87472 13.7772 6.93184C13.7294 6.98896 13.6792 7.02903 13.6657 7.02069C13.6521 7.01235 13.6328 7.02667 13.6228 7.0526C13.6128 7.07871 13.5874 7.09993 13.5661 7.09993C13.5448 7.09993 13.5196 7.12985 13.5099 7.16666C13.5003 7.20329 13.4845 7.22541 13.4747 7.21562C13.465 7.20601 13.4052 7.25079 13.342 7.31516C13.2785 7.37972 13.2149 7.4323 13.2003 7.4323C13.1858 7.4323 13.1462 7.45914 13.1124 7.49178C12.8538 7.74092 12.6575 7.92043 12.5624 7.99478C12.5008 8.04283 12.4192 8.11264 12.3808 8.15018C12.3425 8.18753 12.2968 8.21817 12.2794 8.21817C12.2619 8.21817 12.2512 8.23449 12.2554 8.25444C12.2596 8.27457 12.247 8.29161 12.2276 8.29234C12.2081 8.29306 12.1659 8.32407 12.1336 8.36106C12.1014 8.39823 12.0661 8.41981 12.0552 8.40893C12.0445 8.39823 12.0356 8.41437 12.0356 8.44483C12.0356 8.4753 12.0274 8.49198 12.0174 8.482C12.0074 8.47185 11.946 8.51628 11.8811 8.58028C11.8162 8.64447 11.7629 8.68999 11.7629 8.68128C11.7629 8.67276 11.696 8.73495 11.6142 8.81963C11.5324 8.90431 11.4513 8.97358 11.4339 8.97358C11.4166 8.97358 11.3884 8.99752 11.3715 9.02653C11.3546 9.05554 11.3402 9.07005 11.3397 9.05863C11.3392 9.0472 11.2563 9.11737 11.1554 9.21475C11.0543 9.31194 10.9521 9.39916 10.9281 9.40841C10.9039 9.41747 10.8843 9.43905 10.8843 9.45627C10.8843 9.47332 10.8672 9.48765 10.8465 9.48819C10.8256 9.48855 10.7418 9.5629 10.66 9.65338C10.5784 9.74368 10.5 9.81059 10.4858 9.80189C10.4716 9.79318 10.4602 9.79935 10.4602 9.81548C10.4602 9.83162 10.3786 9.90397 10.2789 9.97596C10.1795 10.0479 10.0901 10.1301 10.0806 10.1582C10.071 10.1865 10.0397 10.2171 10.011 10.2262C9.98244 10.2353 9.87409 10.3208 9.77029 10.4166C9.42634 10.7335 9.38471 10.7687 9.3609 10.7624C9.34799 10.7589 9.32872 10.7801 9.31818 10.8093C9.29636 10.8699 9.18819 10.9829 9.18656 10.9468C9.18601 10.9337 9.15875 10.9549 9.12602 10.9943C9.0933 11.0335 9.0664 11.0554 9.0664 11.0431C9.0664 11.0306 9.0304 11.0563 8.98659 11.1002C8.9426 11.1439 8.89478 11.1798 8.88042 11.1798C8.86606 11.1798 8.8577 11.1961 8.86188 11.2162C8.86606 11.2362 8.84897 11.2538 8.82407 11.2554C8.79898 11.2569 8.78189 11.2744 8.78607 11.2946C8.79025 11.3145 8.77953 11.3308 8.76226 11.3308C8.72917 11.3308 8.67464 11.3773 8.43031 11.6137C8.34686 11.6944 8.27869 11.7524 8.27869 11.7424C8.27869 11.7325 8.23633 11.7684 8.1847 11.8222C8.13326 11.8761 8.08545 11.9169 8.07872 11.9127C8.06672 11.9053 7.94001 12.0177 7.70405 12.2451C7.63951 12.3075 7.57679 12.3584 7.5648 12.3584C7.5528 12.3584 7.50244 12.4059 7.45281 12.4638C7.40318 12.5218 7.35155 12.5624 7.3381 12.5541C7.32465 12.5459 7.26339 12.6003 7.20194 12.675C7.14049 12.7499 7.07905 12.8043 7.0656 12.796C7.05214 12.7876 7.01179 12.8217 6.97597 12.8718C6.94034 12.9218 6.89199 12.9628 6.86853 12.9628C6.84526 12.9628 6.79618 13.003 6.75982 13.0524C6.72328 13.1015 6.68292 13.1352 6.67002 13.1272C6.65711 13.1193 6.61021 13.1601 6.56603 13.2179C6.52186 13.2758 6.45932 13.3314 6.42733 13.3416C6.39515 13.3517 6.37679 13.3728 6.38624 13.3882C6.39588 13.4036 6.38388 13.4161 6.3597 13.4161C6.33552 13.4161 6.3068 13.4522 6.29552 13.4964C6.27516 13.5777 6.32643 13.7487 6.37151 13.7487C6.38497 13.7487 6.40369 13.7724 6.41314 13.8014C6.4226 13.8306 6.47114 13.8979 6.52131 13.951C6.5713 14.0041 6.61221 14.0618 6.61221 14.0794C6.61221 14.097 6.62584 14.1113 6.64257 14.1113C6.65911 14.1113 6.67274 14.1258 6.67274 14.1436C6.67274 14.1614 6.68983 14.194 6.71074 14.2159C6.73146 14.2381 6.78273 14.2993 6.82436 14.3521C6.86599 14.4051 6.9307 14.4847 6.96815 14.5291C7.0056 14.5735 7.03633 14.621 7.03633 14.6344C7.03633 14.648 7.07741 14.6935 7.1274 14.7354C7.1774 14.7775 7.21066 14.8243 7.20139 14.8393C7.19194 14.8544 7.19649 14.8667 7.21121 14.8667C7.22612 14.8667 7.28193 14.9275 7.33537 15.0018C7.38882 15.076 7.44954 15.1543 7.47026 15.1755C7.49099 15.1969 7.54044 15.2618 7.58007 15.32C7.6197 15.3782 7.6806 15.4493 7.7155 15.4782C7.75022 15.5068 7.76786 15.5306 7.75441 15.5309C7.74113 15.5313 7.76695 15.5657 7.81185 15.6073C7.85675 15.6488 7.8853 15.6827 7.87512 15.6827C7.86475 15.6827 7.89584 15.7229 7.94383 15.7719C7.99182 15.8209 8.04 15.8887 8.05072 15.9224C8.06145 15.9561 8.08127 15.9806 8.0949 15.9768C8.10854 15.973 8.16343 16.0084 8.21688 16.0555C8.27033 16.1025 8.32196 16.1331 8.33159 16.1235C8.34141 16.1137 8.33814 16.1059 8.3245 16.1059C8.31105 16.1059 8.35632 16.0651 8.4254 16.0152C8.4943 15.9654 8.56447 15.9246 8.58138 15.9246C8.5981 15.9246 8.61192 15.913 8.61192 15.8988C8.61192 15.8849 8.66645 15.8488 8.73317 15.8187C8.79971 15.7888 8.85424 15.7543 8.85424 15.7423C8.85424 15.7302 8.89515 15.7034 8.94514 15.6827C8.99513 15.662 9.03603 15.6332 9.03603 15.6187C9.03603 15.604 9.05058 15.592 9.0684 15.592C9.08621 15.592 9.14547 15.5581 9.20001 15.5166C9.25473 15.4749 9.30891 15.441 9.32036 15.441C9.33963 15.441 9.5147 15.3264 9.55124 15.2899C9.58178 15.2593 9.68903 15.1969 9.74048 15.1797C9.76975 15.1699 9.79356 15.1521 9.79356 15.1402C9.79356 15.128 9.84792 15.0923 9.91445 15.0606C9.98081 15.0288 10.0353 14.9942 10.0355 14.9839C10.0357 14.9733 10.0768 14.948 10.1268 14.9273C10.1768 14.9066 10.2177 14.8778 10.2177 14.8631C10.2177 14.8486 10.2322 14.8366 10.25 14.8366C10.2679 14.8366 10.3271 14.8025 10.3817 14.761C10.4364 14.7195 10.4915 14.6854 10.504 14.6854C10.5167 14.6854 10.5769 14.648 10.6376 14.6023C10.7852 14.4914 10.8585 14.4455 10.9221 14.4241C10.9514 14.4145 10.9752 14.3974 10.9752 14.3866C10.9752 14.3757 11.0263 14.34 11.0888 14.3073C11.1514 14.2745 11.2092 14.2404 11.2175 14.2312C11.2452 14.2011 11.6697 13.93 11.6895 13.93C11.7 13.93 11.7585 13.8924 11.8193 13.8467C11.9669 13.7358 12.0401 13.6899 12.1038 13.6687C12.133 13.6589 12.1569 13.642 12.1569 13.631C12.1569 13.6201 12.2079 13.5845 12.2705 13.5517C12.333 13.5191 12.3908 13.4848 12.3992 13.4758C12.4268 13.4455 12.8513 13.1744 12.8711 13.1744C12.8817 13.1744 12.9402 13.1358 13.0009 13.0886C13.0616 13.0415 13.1589 12.9769 13.2172 12.9452C13.2756 12.9133 13.3301 12.8795 13.3385 12.8699C13.3469 12.8603 13.4014 12.8264 13.4598 12.7943C13.5179 12.7624 13.5725 12.7289 13.5808 12.7198C13.5936 12.7062 13.8982 12.51 14.0717 12.4037C14.0988 12.3871 14.2142 12.3113 14.3282 12.2353C14.4422 12.1591 14.583 12.0708 14.6414 12.0387C14.6996 12.0068 14.7541 11.9738 14.7625 11.9655C14.861 11.8674 14.9892 11.809 15.0388 11.8398C15.0868 11.8697 15.0906 11.8661 15.0697 11.8095C15.0564 11.7742 15.0557 11.6757 15.0679 11.5909C15.0866 11.4616 15.1353 10.1743 15.1368 9.7745C15.1442 7.70266 15.1172 6.02629 15.075 5.96228C15.0164 5.87289 14.9641 5.87216 14.8935 5.9592ZM16.8325 5.97733C16.7545 6.10191 16.8156 10.671 16.8945 10.6014C16.9134 10.5847 17.0389 10.5005 17.1734 10.4146C17.7357 10.0545 17.9296 9.92809 17.9438 9.91231C17.9522 9.90288 18.0067 9.86916 18.0651 9.83706C18.1578 9.78593 18.6265 9.48819 18.9891 9.24974C19.0558 9.20586 19.1149 9.15981 19.1206 9.14748C19.126 9.13496 19.1435 9.12481 19.1591 9.12481C19.1958 9.12481 19.5605 8.89851 19.7112 8.78228C19.775 8.73296 19.8659 8.69126 19.913 8.68962C19.9833 8.68709 19.9924 8.67875 19.9637 8.64357C19.9346 8.60803 19.9404 8.60349 19.9961 8.61782C20.0562 8.63341 20.0601 8.62852 20.0308 8.57376C20.0043 8.52444 19.9924 8.52045 19.9717 8.55399C19.9504 8.58844 19.9361 8.58572 19.8917 8.5393C19.8501 8.49597 19.8468 8.47947 19.8775 8.46822C19.9055 8.45789 19.8965 8.43867 19.8472 8.40403C19.779 8.35598 19.7665 8.35073 19.7005 8.34275C19.6834 8.34075 19.6567 8.30557 19.641 8.26459C19.6254 8.22361 19.561 8.15761 19.4978 8.11772C19.4347 8.07783 19.3373 8.00258 19.2815 7.95035C19.2255 7.89813 19.1667 7.85552 19.1509 7.85552C19.1349 7.85552 19.1295 7.84337 19.1386 7.82868C19.1477 7.81381 19.0909 7.74926 19.0122 7.68507C18.9337 7.62088 18.8335 7.53094 18.7897 7.48525C18.7459 7.43956 18.701 7.4022 18.6899 7.4022C18.679 7.4022 18.6248 7.35796 18.5697 7.30392C18.3958 7.13329 18.246 7.00927 18.2138 7.00927C18.1967 7.00927 18.1911 6.99566 18.2014 6.97898C18.2118 6.96248 18.2038 6.94888 18.184 6.94888C18.164 6.94888 18.1156 6.91407 18.0762 6.87164C18.0367 6.82939 18.0045 6.80437 18.0045 6.81615C18.0045 6.82812 17.9526 6.7846 17.8891 6.7195C17.7751 6.60255 17.6633 6.50336 17.3808 6.26891C17.3006 6.20236 17.1805 6.09701 17.1138 6.03463C16.9805 5.91024 16.8867 5.89102 16.8325 5.97733Z" fill="#FCBB04"/>
<path fill-rule="evenodd" clip-rule="evenodd" d="M25.736 7.75501C25.7413 7.79943 25.766 7.84132 25.7911 7.84803C25.8204 7.85582 25.8247 7.85129 25.8033 7.83515C25.7849 7.82155 25.7724 7.77967 25.7755 7.74231C25.7785 7.70478 25.7687 7.67432 25.7536 7.67432C25.7387 7.67432 25.7307 7.71058 25.736 7.75501ZM25.7936 7.91022C25.7922 7.93198 25.7776 7.94159 25.7611 7.93144C25.7444 7.92092 25.7387 7.93234 25.7482 7.957C25.7591 7.98529 25.7398 8.00905 25.6947 8.02319C25.6562 8.03516 25.5762 8.08285 25.5173 8.12908C25.4584 8.17514 25.3595 8.23715 25.2977 8.26653C25.2357 8.29609 25.1852 8.32963 25.1852 8.34124C25.1852 8.35284 25.1612 8.37025 25.1321 8.38004C25.0805 8.39745 24.973 8.45983 24.9427 8.49029C24.9343 8.49863 24.8661 8.54505 24.7912 8.59328C24.7163 8.64151 24.618 8.70607 24.5727 8.73671C24.5276 8.76736 24.4776 8.79238 24.4616 8.79238C24.4458 8.79238 24.4282 8.80271 24.4226 8.81504C24.4089 8.84605 24.2531 8.95285 24.1275 9.01759C24.0708 9.04696 24.0094 9.08377 23.9912 9.09937C23.8676 9.2058 23.3696 9.50354 23.3345 9.49194C23.2987 9.48015 23.2993 9.48759 23.3369 9.53546C23.4002 9.61597 23.4353 9.63754 23.4689 9.61687C23.4847 9.60708 23.4891 9.61325 23.4783 9.63047C23.4676 9.64788 23.4791 9.67889 23.504 9.69938C23.5287 9.71987 23.5491 9.72984 23.5491 9.7215C23.5491 9.71316 23.6083 9.76248 23.681 9.8312C23.8057 9.94906 23.9443 10.0696 24.3353 10.4002C24.4278 10.4784 24.5473 10.5837 24.6009 10.6345C24.6547 10.6851 24.7131 10.7266 24.7307 10.7266C24.7483 10.7266 24.7702 10.7458 24.7792 10.7692C24.7883 10.7926 24.8287 10.8202 24.8692 10.8301C24.9096 10.8403 24.9427 10.862 24.9427 10.8784C24.9427 10.9513 25.1608 10.8718 25.2761 10.7569C25.2844 10.7485 25.3388 10.7155 25.3971 10.6836C25.4555 10.6515 25.51 10.616 25.5184 10.6046C25.5268 10.5933 25.5813 10.5598 25.6397 10.5302C25.6978 10.5007 25.7953 10.4376 25.856 10.3901C25.9167 10.3424 25.9752 10.3036 25.986 10.3036C26.0618 10.3036 26.251 10.1237 26.2314 10.0702C26.2239 10.0501 26.231 10.0254 26.2468 10.0156C26.2628 10.0058 26.2759 10.0143 26.2759 10.0348C26.2759 10.0551 26.2837 10.064 26.2932 10.0544C26.3028 10.045 26.291 9.99838 26.267 9.95124C26.2428 9.90391 26.2276 9.83863 26.2327 9.80581C26.2379 9.77318 26.229 9.73074 26.213 9.71152C26.197 9.6923 26.1925 9.65423 26.203 9.62703C26.2134 9.59965 26.2048 9.55667 26.1838 9.53147C26.1627 9.50608 26.1467 9.44515 26.1481 9.39583C26.1494 9.34651 26.1401 9.30626 26.1274 9.30626C26.1147 9.30626 26.1029 9.28921 26.1012 9.26836C26.0936 9.16899 26.0691 9.0145 26.0545 8.9737C26.0456 8.94886 26.0291 8.87416 26.018 8.80779C26.0069 8.74143 25.99 8.67452 25.9803 8.65928C25.9709 8.64387 25.9592 8.59618 25.9543 8.55321C25.9418 8.44332 25.7965 7.86217 25.7936 7.91022ZM21.7926 10.1449C21.7944 10.1864 21.8766 10.2773 21.89 10.2524C21.8973 10.239 21.8782 10.2042 21.8475 10.175C21.8168 10.146 21.792 10.1324 21.7926 10.1449ZM21.9231 10.3166C21.9322 10.3405 21.9304 10.3656 21.9187 10.3721C21.9071 10.3788 21.9135 10.3806 21.9326 10.3763C22.018 10.3565 21.992 10.408 21.8893 10.462C21.7742 10.5226 21.5746 10.6481 21.2767 10.847C21.1849 10.9083 21.0963 10.964 21.0796 10.9708C21.0631 10.9779 20.9505 11.0481 20.8296 11.127C20.7089 11.206 20.5111 11.3351 20.3904 11.4142C20.2695 11.4931 20.157 11.5629 20.1405 11.5692C20.1237 11.5756 20.0896 11.5984 20.0647 11.62C20.0396 11.6416 19.985 11.6775 19.9434 11.6996C19.873 11.7371 19.7547 11.8129 19.2011 12.1747C19.0844 12.2508 18.9754 12.3201 18.9588 12.3284C18.9421 12.3368 18.8466 12.3966 18.7467 12.4615C18.6467 12.5263 18.4967 12.6226 18.4134 12.6755C18.33 12.7284 18.1597 12.8387 18.0346 12.9203C17.9097 13.0019 17.7937 13.0755 17.7772 13.084C17.7604 13.0924 17.665 13.1522 17.565 13.2169C17.465 13.2819 17.3083 13.3821 17.2165 13.44C17.1249 13.498 17.0136 13.5702 16.9695 13.6006C16.8384 13.6904 16.8251 13.6373 16.8129 12.9758C16.8069 12.6447 16.8071 13.108 16.8135 14.0055C16.8275 16.0001 16.8404 16.1735 16.968 16.0821C16.9964 16.0618 17.04 16.036 17.0651 16.0248C17.09 16.0137 17.1173 15.9967 17.1256 15.9873C17.134 15.9776 17.1954 15.9345 17.262 15.8913C17.3287 15.848 17.4856 15.7463 17.6105 15.6652C17.7355 15.5842 17.8717 15.4995 17.9133 15.4774C17.955 15.4551 18.0095 15.4192 18.0346 15.3976C18.0597 15.376 18.0937 15.3532 18.1104 15.3468C18.1271 15.3405 18.2362 15.273 18.3527 15.1967C18.4694 15.1205 18.6672 14.9914 18.7921 14.9096C18.9172 14.828 19.033 14.7555 19.0497 14.7486C19.0663 14.7417 19.155 14.6859 19.2466 14.6248C19.3382 14.5635 19.4882 14.4659 19.5798 14.4079C19.6716 14.3499 19.8489 14.2356 19.9738 14.154C20.0988 14.0724 20.2146 13.9999 20.2314 13.993C20.2479 13.9861 20.3366 13.9305 20.4282 13.8692C20.5199 13.8079 20.6767 13.7062 20.7767 13.6429C20.9447 13.5366 21.303 13.3062 21.5948 13.117C21.6613 13.0739 21.7204 13.0284 21.726 13.0158C21.7315 13.0033 21.7497 12.9932 21.7664 12.9932C21.7829 12.9932 21.8738 12.9435 21.9684 12.8828C22.2178 12.7223 22.6363 12.4525 22.7764 12.3616C22.843 12.3183 22.9021 12.2728 22.9077 12.2603C22.9131 12.2479 22.9308 12.2376 22.9468 12.2376C22.9795 12.2376 23.2867 12.0472 23.4782 11.9081C23.6049 11.8162 23.6343 11.6936 23.5296 11.6936C23.5062 11.6936 23.474 11.6597 23.4582 11.6182C23.4423 11.5767 23.4154 11.5426 23.3987 11.5426C23.3818 11.5426 23.3013 11.478 23.2196 11.399C23.0569 11.2417 22.6755 10.8976 22.5376 10.7835C22.4896 10.744 22.3825 10.6461 22.2996 10.5661C22.2167 10.4862 22.1413 10.4283 22.132 10.4376C22.1227 10.4466 22.0962 10.427 22.0729 10.394C22.0496 10.3609 22.0102 10.3337 21.9851 10.3337C21.96 10.3337 21.948 10.3201 21.9584 10.3036C21.9686 10.2869 21.9611 10.2733 21.9417 10.2733C21.9222 10.2733 21.9138 10.2929 21.9231 10.3166ZM15.0957 14.1522C15.0957 14.764 15.0519 14.8694 14.7292 15.034C14.6725 15.063 14.5764 15.1256 14.5156 15.1733C14.4549 15.2208 14.3982 15.2598 14.3897 15.2598C14.3748 15.2598 13.9924 15.5026 13.9283 15.5526C13.9112 15.566 13.8497 15.6032 13.7919 15.6353C13.7341 15.6672 13.6799 15.7028 13.6716 15.7142C13.6632 15.7256 13.6087 15.759 13.5505 15.7885C13.4922 15.8181 13.3947 15.8812 13.334 15.9289C13.2733 15.9764 13.2147 16.0154 13.204 16.0154C13.1858 16.0154 13.0086 16.1323 12.9748 16.1668C12.9664 16.1751 12.9084 16.2088 12.8461 16.2415C12.7835 16.2743 12.7324 16.31 12.7324 16.3209C12.7324 16.3318 12.7085 16.3486 12.6794 16.3584C12.6221 16.3777 12.5145 16.442 12.4899 16.4719C12.4816 16.4821 12.427 16.5146 12.3689 16.5441C12.3105 16.5737 12.2131 16.6368 12.1523 16.6843C12.0916 16.732 12.0322 16.7708 12.0204 16.7708C12.0086 16.7708 11.9491 16.8083 11.8884 16.854C11.8277 16.8997 11.7302 16.9632 11.6719 16.9953C11.6135 17.0272 11.5592 17.0613 11.5508 17.0707C11.5248 17.1006 11.4168 17.1646 11.3614 17.1833C11.3323 17.1929 11.3083 17.2099 11.3083 17.2208C11.3083 17.2317 11.2572 17.2674 11.1947 17.3001C11.1323 17.3329 11.0743 17.3664 11.066 17.375C11.0321 17.4094 10.8549 17.5264 10.8367 17.5264C10.826 17.5264 10.7675 17.5643 10.7067 17.6105C10.646 17.6569 10.5451 17.7211 10.4828 17.7534C10.4202 17.7857 10.3692 17.8196 10.3692 17.8286C10.3692 17.8377 10.3179 17.872 10.2555 17.9048C10.193 17.9376 10.1252 17.9802 10.1046 17.9994C10.0841 18.0187 10.0263 18.0526 9.97594 18.0749C9.92558 18.0972 9.88432 18.1256 9.88432 18.1382C9.88432 18.1507 9.86305 18.161 9.83705 18.161C9.80906 18.161 9.79869 18.1469 9.81142 18.1262C9.82433 18.1055 9.81978 18.0994 9.80069 18.1111C9.78288 18.1222 9.76142 18.114 9.75288 18.0932C9.74452 18.0723 9.7367 18.0689 9.73561 18.0854C9.73452 18.1021 9.78797 18.1741 9.85432 18.2455C9.92086 18.3168 9.97521 18.3833 9.97521 18.3931C9.97521 18.4031 10.0477 18.5012 10.1365 18.6111C10.2252 18.7209 10.3104 18.8326 10.3259 18.8595C10.3561 18.9119 10.5355 19.1317 10.6947 19.3115C10.7489 19.3725 10.7933 19.4377 10.7933 19.4564C10.7933 19.4749 10.8205 19.5072 10.8538 19.528C10.8873 19.5487 10.9145 19.5837 10.9145 19.6056C10.9145 19.6274 10.926 19.6383 10.9402 19.6296C10.9543 19.6209 10.9842 19.6475 11.0063 19.6891C11.0812 19.8285 11.2188 19.8067 11.4186 19.624C11.4385 19.6058 11.4968 19.5735 11.5481 19.5523C11.5995 19.5309 11.6417 19.5032 11.6417 19.4907C11.6417 19.478 11.6655 19.4595 11.6946 19.4499C11.7437 19.4334 11.8202 19.3886 11.8975 19.3309C12.0015 19.2533 12.3516 19.0374 12.3732 19.0374C12.3874 19.0374 12.399 19.0254 12.399 19.0109C12.399 18.9962 12.4399 18.9674 12.4899 18.9467C12.5399 18.926 12.5808 18.8994 12.5808 18.8872C12.5808 18.8751 12.6354 18.8408 12.7021 18.8107C12.7688 18.7808 12.8233 18.7463 12.8233 18.7342C12.8233 18.722 12.8472 18.7041 12.8762 18.6943C12.9253 18.6778 13.0019 18.633 13.0791 18.5753C13.1771 18.5024 13.5327 18.282 13.5523 18.282C13.5652 18.282 13.5803 18.2716 13.5858 18.2593C13.5998 18.2277 13.7565 18.1208 13.8837 18.0557C13.9421 18.0259 13.9966 17.9931 14.005 17.9829C14.0134 17.9728 14.0473 17.9479 14.0806 17.9278C14.1141 17.9075 14.2504 17.8217 14.3837 17.7371C14.5169 17.6524 14.6527 17.567 14.6854 17.5472C14.718 17.5275 14.7632 17.4943 14.786 17.4734C14.8087 17.4527 14.8365 17.4355 14.848 17.4352C14.913 17.4337 15.0656 17.2529 15.0676 17.1748C15.0694 17.0992 15.073 17.0957 15.0957 17.1487C15.1108 17.1835 15.1225 16.508 15.1232 15.5544C15.1241 14.6443 15.1181 13.8998 15.1101 13.8998C15.1023 13.8998 15.0957 14.0133 15.0957 14.1522Z" fill="#FC7026"/>
<path fill-rule="evenodd" clip-rule="evenodd" d="M15.1402 8.05194C15.1402 8.94951 15.144 9.31235 15.1487 8.85831C15.1535 8.40408 15.1535 7.66971 15.1487 7.22636C15.144 6.78284 15.1402 7.15438 15.1402 8.05194ZM25.947 8.45993C25.947 8.48477 25.9586 8.53246 25.973 8.56564C25.9893 8.60372 25.999 8.60935 25.999 8.58088C25.999 8.55585 25.9873 8.50834 25.973 8.47498C25.9566 8.4369 25.947 8.43128 25.947 8.45993ZM26.0059 8.73192C26.0068 8.75676 26.0193 8.80445 26.0335 8.83763L26.0597 8.8982L26.0613 8.83763C26.0622 8.80445 26.0497 8.75676 26.0335 8.73192C26.0075 8.69167 26.0044 8.69167 26.0059 8.73192ZM22.8825 9.16439C22.8825 9.16964 22.9269 9.21389 22.981 9.26267L23.0794 9.35152L22.9905 9.25324C22.9076 9.16167 22.8825 9.14118 22.8825 9.16439ZM15.1375 10.1976C15.1375 10.3805 15.1425 10.4514 15.1485 10.3552C15.1545 10.2591 15.1545 10.1095 15.1484 10.0228C15.1422 9.93612 15.1373 10.0148 15.1375 10.1976ZM23.9336 10.1044C23.9805 10.1446 24.024 10.172 24.0305 10.1657C24.0453 10.151 23.9067 10.0338 23.8731 10.0324C23.8596 10.0319 23.8869 10.0643 23.9336 10.1044ZM24.0642 10.192C24.0642 10.1972 24.1085 10.2415 24.1627 10.2902L24.261 10.3789L24.1721 10.2808C24.0892 10.1892 24.0642 10.1686 24.0642 10.192ZM26.3696 10.3009C26.368 10.3245 26.4 10.4741 26.4404 10.6333C26.4809 10.7927 26.5223 10.9619 26.5327 11.0096C26.5431 11.0573 26.5585 11.0894 26.5671 11.0808C26.584 11.064 26.4969 10.6141 26.4674 10.5668C26.4576 10.5508 26.4322 10.4748 26.4109 10.398C26.3896 10.3211 26.3711 10.2774 26.3696 10.3009ZM24.4906 10.5936C24.531 10.6368 24.6186 10.7138 24.6853 10.7648C24.7595 10.8217 24.7361 10.7914 24.6246 10.6863C24.4346 10.5073 24.3647 10.4589 24.4906 10.5936ZM15.1389 11.1798C15.1389 11.5206 15.1433 11.66 15.1487 11.4895C15.154 11.3193 15.154 11.0404 15.1487 10.8701C15.1433 10.6997 15.1389 10.8391 15.1389 11.1798ZM24.9415 10.9758C25.0671 11.1093 25.0944 11.1332 25.0944 11.1106C25.0944 11.1057 25.0295 11.0411 24.9504 10.967L24.8064 10.8322L24.9415 10.9758ZM16.7698 11.0741C16.7701 11.1405 16.7763 11.1642 16.7836 11.1265C16.7909 11.089 16.7907 11.0346 16.783 11.0058C16.7754 10.9768 16.7696 11.0076 16.7698 11.0741ZM22.9583 11.1354C23.2606 11.4165 23.3428 11.4863 23.3555 11.4736C23.3632 11.4662 23.2496 11.3615 23.1032 11.2413C22.9569 11.1211 22.8916 11.0734 22.9583 11.1354ZM25.1271 11.1405C25.1307 11.1758 25.4609 11.4589 25.4781 11.4417C25.4861 11.4337 25.4289 11.3681 25.3507 11.2959C25.1967 11.1537 25.1233 11.1026 25.1271 11.1405ZM26.5654 11.1722C26.5716 11.2014 26.6005 11.334 26.6294 11.4669C26.6585 11.6 26.6836 11.7155 26.6852 11.7238C26.687 11.7322 26.6992 11.7842 26.7123 11.8395C26.7643 12.058 26.7879 12.33 26.7529 12.3084C26.7403 12.3006 26.7221 12.3146 26.7125 12.3396C26.689 12.4007 26.5407 12.3351 26.3798 12.1922C26.1273 11.9681 25.9232 11.7922 25.8803 11.7619C25.851 11.7412 25.7617 11.6636 25.6817 11.5893C25.6018 11.5149 25.5294 11.4611 25.521 11.4694C25.5058 11.4846 25.6003 11.5731 25.8514 11.7788C25.9262 11.8399 26.0081 11.9129 26.0331 11.9409C26.174 12.0974 26.6281 12.4491 26.6892 12.4491C26.8399 12.4491 26.8598 12.2256 26.7483 11.7842C26.7083 11.6264 26.6598 11.4192 26.6405 11.324C26.6211 11.2286 26.5938 11.1436 26.5798 11.1351C26.5658 11.1263 26.5592 11.1432 26.5654 11.1722ZM16.7698 11.4368C16.7701 11.5031 16.7763 11.5269 16.7836 11.4892C16.7909 11.4516 16.7907 11.3972 16.783 11.3684C16.7754 11.3394 16.7696 11.3702 16.7698 11.4368ZM23.5793 11.691C23.5793 11.7091 23.591 11.7238 23.6053 11.7238C23.6195 11.7238 23.6649 11.7545 23.7064 11.7918C23.7478 11.8292 23.8146 11.887 23.8547 11.9202L23.9278 11.9808L23.8673 11.9093C23.7773 11.8034 23.5793 11.6535 23.5793 11.691ZM15.1304 15.562C15.1246 17.6146 15.1224 19.399 15.1255 19.5272C15.1315 19.7704 15.1091 19.8625 15.0622 19.7885C15.0431 19.7586 15.036 19.7657 15.0357 19.8152C15.0353 19.8618 14.9951 19.9078 14.9064 19.963C14.6252 20.1381 14.4439 20.2612 14.4343 20.2834C14.4287 20.2962 14.411 20.3066 14.3948 20.3066C14.3788 20.3066 14.2879 20.3575 14.1929 20.4199C14.098 20.4821 14.0065 20.5399 13.9898 20.5485C13.9618 20.5626 13.8842 20.6123 13.4293 20.9075C13.3377 20.967 13.2581 21.0261 13.2526 21.039C13.247 21.0516 13.2266 21.0625 13.2072 21.0629C13.1877 21.0634 13.0218 21.1644 12.8385 21.2874C12.6553 21.4103 12.5009 21.4992 12.4957 21.4847C12.4904 21.4703 12.4695 21.4649 12.4491 21.4725C12.4026 21.4905 12.2717 21.3652 12.1961 21.2303C12.1783 21.1985 12.1383 21.169 12.1072 21.1646C12.0586 21.1577 12.057 21.1617 12.0963 21.1925C12.1212 21.2123 12.1781 21.2828 12.2226 21.3492C12.327 21.5053 12.4468 21.6393 12.4653 21.6207C12.4735 21.6127 12.48 21.6239 12.48 21.6455C12.48 21.6798 12.7296 22.0172 13.187 22.6011C13.2619 22.6968 13.4517 22.9438 13.6086 23.1502C13.8931 23.5244 13.9305 23.5725 14.1583 23.8577C14.2983 24.0328 14.2792 24.0084 14.487 24.2807C14.9124 24.8383 14.9404 24.87 15.0091 24.87C15.1631 24.87 15.1571 25.1524 15.1487 18.2449C15.1429 13.2979 15.1385 12.6839 15.1304 15.562ZM24.0036 12.0551C24.0036 12.0712 24.0342 12.1004 24.0718 12.12C24.1396 12.1556 24.1396 12.1554 24.0822 12.0908C24.018 12.0188 24.0036 12.0123 24.0036 12.0551ZM24.3759 12.3811C24.4628 12.46 24.5385 12.5351 24.5441 12.5478C24.5495 12.5603 24.5837 12.5849 24.6197 12.6022C24.6557 12.6196 24.5899 12.5449 24.4732 12.4364C24.3565 12.328 24.2514 12.2388 24.2396 12.2384C24.228 12.2379 24.2892 12.3023 24.3759 12.3811ZM24.8415 12.8011C24.9273 12.8818 25.0324 12.975 25.0749 13.0082C25.1173 13.0415 25.1527 13.0856 25.1535 13.1064C25.1544 13.1273 25.1753 13.1442 25.2004 13.1442C25.2253 13.1442 25.2458 13.1639 25.2458 13.188C25.2458 13.2122 25.2694 13.245 25.2982 13.2611C25.3445 13.287 25.3411 13.2947 25.2678 13.3278C25.2224 13.3485 25.1853 13.3753 25.1853 13.3873C25.1853 13.3993 25.1613 13.4172 25.1322 13.4268C25.0807 13.4443 24.9735 13.5066 24.9428 13.5371C24.9344 13.5454 24.8799 13.5784 24.8217 13.6103C24.7633 13.6424 24.7088 13.6763 24.7004 13.686C24.6735 13.7168 24.4914 13.8394 24.4725 13.8394C24.4623 13.8394 24.4094 13.8733 24.3547 13.9148C24.3001 13.9565 24.246 13.9904 24.2343 13.9904C24.2132 13.9904 24.0325 14.1106 24.0036 14.1438C23.9953 14.1534 23.9407 14.1873 23.8824 14.2194C23.824 14.2513 23.7695 14.2843 23.7611 14.2927C23.7387 14.315 23.6313 14.3808 23.5793 14.404C23.5544 14.4151 23.5271 14.4319 23.5188 14.4416C23.4917 14.4724 23.3097 14.5948 23.2908 14.5948C23.2806 14.5948 23.2277 14.6289 23.173 14.6704C23.1185 14.7119 23.0643 14.746 23.0527 14.746C23.0316 14.746 22.8509 14.8662 22.822 14.8994C22.8136 14.9088 22.7591 14.9429 22.7007 14.9748C22.6424 15.0069 22.5878 15.0397 22.5795 15.0481C22.5571 15.0706 22.4497 15.1362 22.3977 15.1594C22.3728 15.1707 22.3455 15.1875 22.3371 15.1971C22.3101 15.228 22.1281 15.3504 22.1092 15.3504C22.099 15.3504 22.0461 15.3845 21.9914 15.426C21.9368 15.4675 21.8774 15.5014 21.8596 15.5014C21.8418 15.5014 21.8225 15.5119 21.817 15.5248C21.8021 15.5589 21.4689 15.7734 21.4305 15.7734C21.4125 15.7734 21.3978 15.7855 21.3978 15.8002C21.3978 15.8149 21.374 15.8349 21.3449 15.8447C21.2911 15.8626 21.1833 15.9261 21.1555 15.956C21.1195 15.9948 20.7003 16.257 20.6743 16.257C20.6585 16.257 20.6408 16.2675 20.6354 16.2802C20.6238 16.307 20.2913 16.529 20.2629 16.529C20.2525 16.529 20.2274 16.5435 20.2074 16.5613C20.1382 16.6224 19.5192 17.0126 19.4916 17.0126C19.4763 17.0126 19.4592 17.0229 19.4537 17.0358C19.4421 17.0625 19.1096 17.2846 19.0812 17.2846C19.0709 17.2846 19.0458 17.2989 19.0258 17.3167C18.9471 17.3858 18.3408 17.768 18.3099 17.768C18.2919 17.768 18.2768 17.7783 18.2763 17.7907C18.2757 17.8032 18.1661 17.8813 18.0325 17.9646C17.8991 18.0476 17.6635 18.1972 17.5091 18.2969C17.3548 18.3967 17.151 18.5281 17.0563 18.5892C16.9357 18.6668 16.8772 18.6895 16.8614 18.6647C16.8488 18.6453 16.8287 17.793 16.8163 16.7707C16.8041 15.7486 16.7894 14.8374 16.7838 14.746C16.7779 14.6544 16.7743 16.8742 16.7754 19.6786L16.7774 24.7777L16.845 24.8452L16.9128 24.9128L16.9961 24.8508C17.0417 24.8167 17.1204 24.7335 17.1706 24.6659C17.2421 24.5699 17.6425 24.0633 17.7858 23.8878C17.8153 23.8517 18.0719 23.5184 18.3912 23.1021C18.5184 22.9358 18.6984 22.7039 18.7907 22.5866C18.8833 22.4693 18.9929 22.3273 19.0345 22.2711C19.0763 22.2149 19.1856 22.0727 19.2776 21.9554C19.3698 21.8381 19.4719 21.707 19.5048 21.6638C19.5379 21.6207 19.6466 21.4796 19.7466 21.3505C19.8466 21.2212 19.9573 21.0756 19.9928 21.0272C20.0282 20.9786 20.0967 20.8953 20.1453 20.8419C20.1938 20.7885 20.2738 20.6888 20.3232 20.6203C20.3727 20.5515 20.4905 20.3952 20.585 20.2727C20.6796 20.1501 20.8535 19.9205 20.9719 19.7626C21.0902 19.6048 21.2242 19.4302 21.2697 19.3749C21.3742 19.2478 21.4767 19.1162 21.761 18.7446C21.8859 18.5814 22.0699 18.3443 22.1701 18.2175C22.2702 18.0908 22.4068 17.9158 22.4735 17.8287C22.5402 17.7419 22.6107 17.6538 22.6302 17.6331C22.6498 17.6126 22.7044 17.5413 22.7514 17.475C22.8603 17.3214 23.0592 17.0608 23.2912 16.7669C23.3913 16.6401 23.5455 16.4429 23.6337 16.3286C23.7218 16.2144 23.9096 15.9714 24.0511 15.7886C24.1925 15.6057 24.3552 15.395 24.4127 15.3201C24.5883 15.0914 25.2489 14.2396 25.4645 13.9638C25.7465 13.6031 25.7455 13.5512 25.4534 13.2914C25.3343 13.1855 25.1991 13.0649 25.1529 13.0234C24.7857 12.6928 24.5394 12.5171 24.8415 12.8011ZM10.3085 18.8862C10.3442 18.9361 10.3802 18.9769 10.3885 18.9769C10.3969 18.9769 10.3745 18.9361 10.3389 18.8862C10.3033 18.8364 10.2673 18.7956 10.2591 18.7956C10.2507 18.7956 10.2731 18.8364 10.3085 18.8862ZM10.7156 19.4076C10.7623 19.4699 10.8063 19.5209 10.8132 19.5209C10.8399 19.5209 10.7654 19.4115 10.6997 19.3542C10.6432 19.3051 10.6461 19.3147 10.7156 19.4076ZM11.0012 19.7853C11.0391 19.8393 11.0766 19.8835 11.0844 19.8835C11.1106 19.8835 11.0395 19.7731 10.9855 19.73C10.9477 19.6995 10.9521 19.7156 11.0012 19.7853ZM11.2351 20.0805C11.2795 20.1383 11.3202 20.1858 11.3258 20.1858C11.3513 20.1858 11.2282 20.0036 11.1937 19.9903C11.1722 19.982 11.1909 20.0226 11.2351 20.0805ZM11.4162 20.3142C11.4649 20.3682 11.5153 20.4253 11.5278 20.4411C11.5423 20.4591 11.5509 20.4589 11.5509 20.4402C11.5509 20.4047 11.3818 20.2159 11.35 20.2159C11.3375 20.2159 11.3673 20.2602 11.4162 20.3142ZM11.6729 20.6391C11.7427 20.7305 11.8143 20.8107 11.8319 20.817C11.8688 20.8306 11.8492 20.8054 11.67 20.6088L11.546 20.4729L11.6729 20.6391ZM11.9712 21.0226C11.9901 21.0593 12.0201 21.0979 12.0377 21.1088C12.0981 21.1459 12.0844 21.1077 12.0105 21.0319C11.9436 20.9635 11.9399 20.9626 11.9712 21.0226Z" fill="#FC3146"/>
<path fill-rule="evenodd" clip-rule="evenodd" d="M26.146 9.4579C26.1549 9.49126 26.1764 9.52753 26.1938 9.53841C26.2138 9.55074 26.2182 9.53841 26.2053 9.50522C26.1942 9.47621 26.1851 9.43995 26.1851 9.42472C26.1851 9.40948 26.1728 9.39697 26.1577 9.39697C26.1426 9.39697 26.1373 9.42435 26.146 9.4579ZM26.2286 9.83741C26.2351 9.86933 26.2493 9.91792 26.2602 9.9453C26.2711 9.97287 26.2662 10.0039 26.2491 10.0144C26.232 10.0249 26.224 10.0501 26.2315 10.0702C26.2511 10.1237 26.0619 10.3036 25.9861 10.3036C25.9753 10.3036 25.9168 10.3424 25.8561 10.3901C25.7954 10.4376 25.6979 10.5007 25.6397 10.5303C25.5814 10.5598 25.5269 10.5934 25.5185 10.6046C25.5101 10.616 25.4556 10.6516 25.3972 10.6837C25.3389 10.7156 25.2845 10.7486 25.2762 10.7569C25.1609 10.8719 24.9428 10.9513 24.9428 10.8784C24.9428 10.8621 24.9097 10.8403 24.8693 10.8302C24.8288 10.8202 24.7884 10.7926 24.7793 10.7693C24.7702 10.7459 24.7457 10.7266 24.7246 10.7266C24.6864 10.7266 25.0555 11.0764 25.1549 11.1346C25.2031 11.1629 25.5425 11.4585 25.7321 11.6374C25.7785 11.6811 25.8428 11.7355 25.875 11.7582C25.9223 11.7916 26.12 11.9618 26.3798 12.1923C26.5407 12.3352 26.689 12.4008 26.7125 12.3397C26.7221 12.3147 26.7403 12.3007 26.7529 12.3085C26.7879 12.3301 26.7643 12.0581 26.7123 11.8396C26.6992 11.7843 26.687 11.7323 26.6852 11.7239C26.6836 11.7156 26.6596 11.6068 26.632 11.4822C26.6043 11.3575 26.5745 11.2148 26.5658 11.1649C26.5393 11.0142 26.4996 10.8456 26.4271 10.5756C26.3893 10.4342 26.36 10.2873 26.3624 10.249C26.3646 10.2108 26.3542 10.1868 26.3391 10.1961C26.3242 10.2053 26.3186 10.1872 26.3269 10.1558C26.3351 10.1245 26.3271 10.0896 26.3089 10.0786C26.2907 10.0673 26.276 10.0447 26.276 10.028C26.276 10.0113 26.2891 10.0059 26.3051 10.0157C26.3218 10.0262 26.3202 9.9919 26.3009 9.93442C26.2626 9.81983 26.2109 9.75056 26.2286 9.83741ZM24.5186 10.5631C24.5186 10.5807 24.5528 10.6271 24.5944 10.6663C24.6361 10.7052 24.6701 10.7274 24.6701 10.7154C24.6701 10.7036 24.6361 10.6572 24.5944 10.6122C24.5528 10.5674 24.5186 10.5453 24.5186 10.5631ZM23.4582 11.6331C23.4582 11.6697 23.5431 11.7096 23.568 11.6848C23.5771 11.6757 23.5561 11.6532 23.5213 11.6347C23.4775 11.6113 23.4582 11.6108 23.4582 11.6331ZM23.5902 11.7691C23.6017 11.7986 23.5635 11.8463 23.4799 11.9071C23.2874 12.0469 22.9798 12.2376 22.9469 12.2376C22.9309 12.2376 22.9132 12.248 22.9078 12.2603C22.9021 12.2728 22.8431 12.3183 22.7765 12.3617C22.6364 12.4525 22.2179 12.7223 21.9685 12.8828C21.8739 12.9435 21.783 12.9932 21.7665 12.9932C21.7498 12.9932 21.7316 13.0034 21.7261 13.0159C21.7205 13.0284 21.6614 13.0739 21.5949 13.1171C21.3031 13.3062 20.9448 13.5367 20.7768 13.6429C20.6768 13.7062 20.5199 13.8079 20.4283 13.8692C20.3367 13.9305 20.248 13.9862 20.2314 13.9931C20.2147 14 20.0989 14.0725 19.9738 14.1541C19.849 14.2357 19.6717 14.3499 19.5799 14.4079C19.4883 14.466 19.3383 14.5635 19.2467 14.6248C19.1551 14.6859 19.0663 14.7418 19.0498 14.7487C19.0331 14.7555 18.9205 14.8257 18.7998 14.9048C18.6789 14.9837 18.4813 15.1129 18.3604 15.1918C18.2396 15.2707 18.1272 15.3405 18.1105 15.3469C18.0938 15.3532 18.0598 15.3761 18.0347 15.3976C18.0096 15.4192 17.955 15.4551 17.9134 15.4774C17.8718 15.4995 17.7356 15.5842 17.6106 15.6653C17.4857 15.7463 17.3288 15.848 17.2621 15.8914C17.1955 15.9347 17.1364 15.9802 17.1308 15.9927C17.1253 16.0051 17.103 16.0154 17.0815 16.0154C17.0599 16.0154 17.0254 16.0357 17.0046 16.0607C16.8836 16.2062 16.8574 16.1173 16.8261 15.4562C16.8101 15.1168 16.8058 15.491 16.813 16.5594C16.8288 18.8835 16.8123 18.7464 17.0563 18.5893C17.151 18.5282 17.3548 18.3968 17.5091 18.297C17.6635 18.1973 17.8991 18.0477 18.0325 17.9647C18.1661 17.8814 18.2757 17.8033 18.2763 17.7908C18.2768 17.7785 18.2919 17.7681 18.3099 17.7681C18.3408 17.7681 18.9471 17.3859 19.0258 17.3168C19.0458 17.299 19.0709 17.2847 19.0812 17.2847C19.1096 17.2847 19.4421 17.0626 19.4537 17.0359C19.4592 17.023 19.4763 17.0127 19.4916 17.0127C19.5192 17.0127 20.1382 16.6225 20.2074 16.5614C20.2274 16.5436 20.2525 16.5291 20.2629 16.5291C20.2913 16.5291 20.6238 16.3072 20.6354 16.2803C20.6408 16.2676 20.6585 16.2571 20.6743 16.2571C20.7003 16.2571 21.1195 15.9949 21.1555 15.9561C21.1833 15.9262 21.2911 15.8627 21.3449 15.8448C21.374 15.835 21.3978 15.815 21.3978 15.8004C21.3978 15.7857 21.4125 15.7735 21.4305 15.7735C21.4689 15.7735 21.8021 15.559 21.817 15.5249C21.8225 15.512 21.8418 15.5015 21.8596 15.5015C21.8774 15.5015 21.9368 15.4676 21.9914 15.4261C22.0461 15.3846 22.099 15.3505 22.1092 15.3505C22.1281 15.3505 22.3101 15.2281 22.3371 15.1973C22.3455 15.1877 22.3728 15.1708 22.3977 15.1595C22.4497 15.1363 22.5571 15.0707 22.5795 15.0482C22.5878 15.0399 22.6424 15.0071 22.7007 14.975C22.7591 14.943 22.8136 14.909 22.822 14.8995C22.8509 14.8663 23.0316 14.7461 23.0527 14.7461C23.0643 14.7461 23.1185 14.712 23.173 14.6705C23.2277 14.629 23.2806 14.5949 23.2908 14.5949C23.3079 14.5949 23.485 14.4776 23.5188 14.4438C23.5413 14.4214 23.6486 14.3557 23.7006 14.3325C23.7255 14.3215 23.7527 14.3044 23.7611 14.295C23.7695 14.2854 23.824 14.2515 23.8824 14.2195C23.9407 14.1875 23.9953 14.1535 24.0036 14.1439C24.0325 14.1107 24.2132 13.9905 24.2343 13.9905C24.246 13.9905 24.3001 13.9566 24.3547 13.9149C24.4094 13.8734 24.4623 13.8395 24.4725 13.8395C24.4914 13.8395 24.6735 13.7169 24.7004 13.6861C24.7088 13.6765 24.7633 13.6426 24.8217 13.6105C24.8799 13.5786 24.9344 13.5456 24.9428 13.5372C24.9735 13.5068 25.0807 13.4444 25.1322 13.427C25.1613 13.4174 25.1853 13.3994 25.1853 13.3874C25.1853 13.3755 25.2224 13.3486 25.2678 13.328C25.3411 13.2948 25.3445 13.2872 25.2982 13.2612C25.2694 13.2451 25.2458 13.2123 25.2458 13.1882C25.2458 13.164 25.2253 13.1443 25.2004 13.1443C25.1753 13.1443 25.1544 13.1274 25.1535 13.1066C25.1527 13.0857 25.1171 13.0416 25.0742 13.0083C25.0315 12.9751 24.9195 12.8775 24.8257 12.7914C24.7317 12.7055 24.5684 12.5559 24.4626 12.459C24.357 12.3622 24.2523 12.2726 24.2301 12.2601C24.2078 12.2474 24.1363 12.1863 24.0711 12.1241C23.7024 11.7729 23.5479 11.6587 23.5902 11.7691ZM15.0676 17.1748C15.0656 17.253 14.9131 17.4338 14.848 17.4352C14.8366 17.4356 14.8088 17.4528 14.7861 17.4735C14.7633 17.4943 14.7181 17.5275 14.6855 17.5473C14.6528 17.567 14.517 17.6524 14.3838 17.7371C14.2505 17.8218 14.1142 17.9076 14.0807 17.9279C14.0474 17.948 14.0134 17.9728 14.0051 17.983C13.9967 17.9931 13.9422 18.026 13.8838 18.0557C13.7566 18.1208 13.5999 18.2278 13.5859 18.2593C13.5804 18.2717 13.5653 18.282 13.5524 18.282C13.5328 18.282 13.1772 18.5025 13.0792 18.5754C13.002 18.633 12.9254 18.6778 12.8763 18.6943C12.8472 18.7041 12.8234 18.7221 12.8234 18.7342C12.8234 18.7464 12.7689 18.7808 12.7022 18.8107C12.6355 18.8408 12.5809 18.8751 12.5809 18.8873C12.5809 18.8994 12.54 18.9261 12.49 18.9467C12.44 18.9674 12.3991 18.9962 12.3991 19.0109C12.3991 19.0254 12.3875 19.0374 12.3733 19.0374C12.3517 19.0374 12.0016 19.2534 11.8976 19.331C11.8203 19.3886 11.7438 19.4334 11.6947 19.4499C11.6656 19.4595 11.6418 19.478 11.6418 19.4907C11.6418 19.5032 11.5996 19.531 11.5482 19.5524C11.4969 19.5736 11.4385 19.6059 11.4187 19.624C11.2166 19.809 11.0886 19.8274 11.0021 19.6846C10.9752 19.6403 10.9455 19.6166 10.9359 19.6318C10.9264 19.647 10.9792 19.7252 11.053 19.8053C11.1268 19.8857 11.1873 19.9633 11.1873 19.978C11.1873 19.9926 11.1979 20.0046 11.2106 20.0046C11.2235 20.0046 11.2595 20.0518 11.2907 20.1094C11.3218 20.1671 11.3591 20.2071 11.3733 20.1983C11.3876 20.1896 11.3996 20.2001 11.3998 20.2218C11.4002 20.2436 11.4342 20.2935 11.4756 20.3326C11.5169 20.3718 11.5513 20.4193 11.5516 20.4383C11.5522 20.4574 11.6032 20.529 11.6652 20.5975C11.7272 20.6661 11.7985 20.7528 11.8236 20.7901C11.8485 20.8276 11.887 20.8768 11.909 20.8998C11.931 20.9227 11.9408 20.9413 11.9307 20.9413C11.9207 20.9413 11.9506 20.9789 11.9976 21.0246C12.0445 21.0703 12.0892 21.1212 12.097 21.1379C12.105 21.1544 12.1212 21.1647 12.1332 21.1607C12.1452 21.1568 12.1712 21.1838 12.191 21.2206C12.2108 21.2576 12.2419 21.3045 12.2601 21.325C12.3553 21.4326 12.384 21.4706 12.384 21.4897C12.384 21.5011 12.3964 21.522 12.4117 21.5357C12.4275 21.5502 12.4308 21.5461 12.4193 21.5263C12.4084 21.5073 12.4189 21.4842 12.4429 21.4752C12.4668 21.4661 12.4904 21.4705 12.4957 21.4848C12.5009 21.4993 12.6553 21.4104 12.8385 21.2875C13.0218 21.1646 13.1877 21.0636 13.2072 21.063C13.2266 21.0626 13.247 21.0518 13.2526 21.0391C13.2581 21.0262 13.3377 20.9671 13.4293 20.9076C13.8842 20.6124 13.9618 20.5627 13.9898 20.5486C14.0065 20.5401 14.098 20.4822 14.1929 20.42C14.2879 20.3576 14.3788 20.3067 14.3948 20.3067C14.411 20.3067 14.4287 20.2964 14.4343 20.2835C14.4439 20.2614 14.6252 20.1382 14.9064 19.9631C14.9929 19.9092 15.036 19.8608 15.0375 19.8153C15.0389 19.7781 15.0469 19.7647 15.0553 19.7856C15.0637 19.8066 15.0829 19.816 15.098 19.8068C15.1324 19.7856 15.1293 17.2321 15.0947 17.1487C15.0731 17.0965 15.0695 17.0999 15.0676 17.1748ZM10.6116 19.2584C10.6116 19.2637 10.6559 19.3079 10.7101 19.3567L10.8085 19.4454L10.7196 19.3473C10.6367 19.2557 10.6116 19.2351 10.6116 19.2584Z" fill="#FC5234"/>
<path d="M37.5919 17.4563H35.5621V11.6606H37.5919V17.4563ZM42.5578 9.91166H30.5961V7.88188H42.5578V9.91166ZM56.4471 15.0946C56.4471 15.4223 56.3854 15.7286 56.262 16.0138C56.1343 16.2989 55.9641 16.5478 55.7513 16.7606C55.5343 16.9776 55.2811 17.1478 54.9918 17.2712C54.7024 17.3946 54.396 17.4563 54.0726 17.4563H46.8471C46.5195 17.4563 46.2131 17.3946 45.928 17.2712C45.6386 17.1478 45.3876 16.9776 45.1748 16.7606C44.9578 16.5478 44.7876 16.2989 44.6642 16.0138C44.5365 15.7286 44.4727 15.4223 44.4727 15.0946V7.88188H46.5024V15.0946C46.5024 15.184 46.5365 15.2627 46.6046 15.3308C46.6684 15.4031 46.7493 15.4393 46.8471 15.4393H54.0726C54.1705 15.4393 54.2535 15.4031 54.3216 15.3308C54.3854 15.2627 54.4173 15.184 54.4173 15.0946V7.88188H56.4471V15.0946ZM70.3364 14.8776C70.3364 15.2308 70.2683 15.5627 70.1321 15.8733C69.9959 16.1882 69.8108 16.4627 69.5768 16.6967C69.3385 16.9308 69.0619 17.1159 68.747 17.252C68.4321 17.3882 68.0981 17.4563 67.7449 17.4563H58.362V11.6606H67.7449C67.8215 11.6606 67.8938 11.6457 67.9619 11.6159C68.03 11.5861 68.0896 11.5457 68.1406 11.4946C68.1917 11.4436 68.2321 11.384 68.2619 11.3159C68.2917 11.2478 68.3066 11.1755 68.3066 11.0989V10.4734C68.3066 10.3968 68.2917 10.3244 68.2619 10.2563C68.2321 10.1883 68.1917 10.1287 68.1406 10.0776C68.0896 10.0266 68.03 9.98613 67.9619 9.95634C67.8938 9.92655 67.8215 9.91166 67.7449 9.91166H58.362V7.88188H67.7449C68.0981 7.88188 68.4321 7.94997 68.747 8.08614C69.0619 8.22231 69.3385 8.40741 69.5768 8.64145C69.8108 8.87975 69.9959 9.15634 70.1321 9.47124C70.2683 9.78613 70.3364 10.1202 70.3364 10.4734V11.0989C70.3364 11.401 70.2895 11.684 70.1959 11.9478C70.0981 12.2116 69.9661 12.4521 69.8002 12.6691C69.9661 12.8861 70.0981 13.1287 70.1959 13.3967C70.2895 13.6648 70.3364 13.9457 70.3364 14.2393V14.8776ZM68.3066 14.2393C68.3066 14.167 68.2917 14.0967 68.2619 14.0287C68.2321 13.9648 68.1917 13.9074 68.1406 13.8563C68.0896 13.8053 68.03 13.7648 67.9619 13.735C67.8938 13.7053 67.8215 13.6904 67.7449 13.6904H60.3917V15.4393H67.7449C67.8215 15.4393 67.8938 15.4244 67.9619 15.3946C68.03 15.3648 68.0896 15.3244 68.1406 15.2733C68.1917 15.2223 68.2321 15.1627 68.2619 15.0946C68.2917 15.0265 68.3066 14.9542 68.3066 14.8776V14.2393ZM83.7661 17.4563H74.7661C74.4214 17.4563 74.098 17.3903 73.7959 17.2584C73.4895 17.1265 73.2214 16.9478 72.9917 16.7223C72.7619 16.4967 72.581 16.2308 72.4491 15.9244C72.3172 15.6223 72.2512 15.2989 72.2512 14.9542V7.88188H74.281V14.9542C74.281 15.0818 74.3278 15.1946 74.4214 15.2925C74.5151 15.3904 74.6299 15.4393 74.7661 15.4393H83.7661V17.4563ZM87.7107 17.4563H85.681V7.88188H87.7107V17.4563ZM99.5702 11.6606V10.4223C99.5702 10.2819 99.5213 10.1606 99.4234 10.0585C99.3213 9.96059 99.2 9.91166 99.0596 9.91166H92.1533C92.0171 9.91166 91.9001 9.96059 91.8022 10.0585C91.7043 10.1606 91.6554 10.2819 91.6554 10.4223V11.6606H99.5702ZM101.6 17.4563H99.5702V13.6904H91.6554V17.4563H89.6256V10.4223C89.6256 10.0734 89.6916 9.74357 89.8235 9.43294C89.9554 9.12656 90.1362 8.85847 90.366 8.62869C90.5958 8.3989 90.8639 8.21592 91.1703 8.07975C91.4767 7.94784 91.8043 7.88188 92.1533 7.88188H99.0596C99.4085 7.88188 99.7383 7.94784 100.049 8.07975C100.355 8.21592 100.623 8.3989 100.853 8.62869C101.083 8.85847 101.266 9.12656 101.402 9.43294C101.534 9.74357 101.6 10.0734 101.6 10.4223V17.4563ZM115.489 17.4563H113.46V10.4734C113.46 10.3968 113.445 10.3244 113.415 10.2563C113.385 10.1883 113.345 10.1287 113.294 10.0776C113.243 10.0266 113.183 9.98613 113.115 9.95634C113.047 9.92655 112.974 9.91166 112.898 9.91166H103.515V7.88188H112.898C113.251 7.88188 113.585 7.94997 113.9 8.08614C114.215 8.22231 114.491 8.40741 114.73 8.64145C114.964 8.87975 115.149 9.15634 115.285 9.47124C115.421 9.78613 115.489 10.1202 115.489 10.4734V17.4563ZM105.545 17.4563H103.515V11.6606H105.545V17.4563Z" fill="#FEFEFE"/>
</svg>
